<?xml version="1.0" encoding="utf-8"?>
<!-- Generator: Adobe Illustrator 16.0.0, SVG Export Plug-In . SVG Version: 6.00 Build 0)  -->
<!DOCTYPE svg PUBLIC "-//W3C//DTD SVG 1.1//EN" "http://www.w3.org/Graphics/SVG/1.1/DTD/svg11.dtd">
<svg version="1.1" id="Layer_1" xmlns="http://www.w3.org/2000/svg" xmlns:xlink="http://www.w3.org/1999/xlink" x="0px" y="0px"
	 width="92.837px" height="92.836px" viewBox="0 0 92.837 92.836" enable-background="new 0 0 92.837 92.836" xml:space="preserve">
<g>
	<path fill="#F6DB58" d="M86.438,70.076l-4.93,2.039l-0.456,5.313l-5.231,1.038l-1.483,5.123l-5.334-0.002l-2.454,4.736
		l-5.231-1.043l-3.33,4.165L53.06,89.4l-4.079,3.437l-4.434-2.965l-4.672,2.573l-3.77-3.774l-5.084,1.612l-2.961-4.436l-5.301,0.589
		l-2.037-4.928l-5.315-0.457l-1.038-5.231l-5.123-1.484l0.003-5.333l-4.735-2.454l1.043-5.231l-4.165-3.332l2.044-4.926L0,48.98
		l2.966-4.432l-2.573-4.673l3.773-3.769l-1.613-5.084l4.437-2.961L6.4,22.76l4.928-2.039l0.456-5.314l5.231-1.038l1.483-5.123
		l5.334,0.002l2.455-4.735l5.23,1.044l3.331-4.166l4.928,2.044L43.857,0l4.432,2.966l4.672-2.573l3.771,3.773l5.083-1.612
		l2.961,4.436L70.076,6.4l2.039,4.928l5.313,0.456l1.038,5.231L83.59,18.5l-0.003,5.333l4.735,2.455l-1.043,5.23l4.165,3.332
		L89.4,39.776l3.437,4.08l-2.966,4.435l2.573,4.671L88.67,56.73l1.613,5.084l-4.437,2.962L86.438,70.076z"/>
</g>
<g>
	<g>
		<path fill="#222222" d="M17.426,53.334l0.003-8.544l1.714-0.459l4.274,7.398l-1.361,0.364l-1.347-2.478l-1.989,0.533l0.068,2.821
			L17.426,53.334z M18.63,48.977l1.511-0.405l-1.533-2.822L18.63,48.977z"/>
		<path fill="#222222" d="M25.709,51.115l-2.119-7.91l2.857-0.766c1.512-0.405,2.459,0.104,2.84,1.526l0.977,3.642
			c0.381,1.422-0.186,2.336-1.697,2.742L25.709,51.115z M26.63,49.672l1.465-0.393c0.814-0.218,1.115-0.722,0.903-1.513
			l-0.886-3.306c-0.212-0.791-0.725-1.077-1.539-0.859l-1.465,0.393L26.63,49.672z"/>
		<path fill="#222222" d="M33.29,47.283l-1.216-4.537c-0.093-0.348-0.117-0.66-0.07-0.938c0.047-0.277,0.151-0.507,0.316-0.689
			c0.163-0.182,0.348-0.331,0.552-0.447s0.436-0.208,0.692-0.277l1.169-0.313c0.258-0.069,0.504-0.104,0.738-0.105
			c0.234-0.002,0.469,0.036,0.702,0.11c0.233,0.076,0.439,0.222,0.617,0.439c0.18,0.217,0.316,0.5,0.409,0.847l1.216,4.537
			c0.313,1.204-0.206,1.987-1.559,2.35c0.014,0.088,0.031,0.168,0.051,0.242c0.057,0.208,0.137,0.377,0.241,0.507
			c0.144,0.176,0.33,0.233,0.56,0.172l0.92-0.247L38.73,49l0.222,0.828l-1.581,0.424c-0.192,0.051-0.365,0.064-0.516,0.036
			c-0.153-0.027-0.276-0.09-0.371-0.19c-0.094-0.099-0.175-0.208-0.24-0.326c-0.053-0.096-0.096-0.207-0.13-0.333
			c-0.008-0.028-0.017-0.059-0.024-0.092c-0.037-0.17-0.062-0.316-0.078-0.439c-0.016-0.123-0.027-0.26-0.038-0.41l-0.227,0.061
			c-0.204,0.054-0.401,0.089-0.589,0.105c-0.189,0.016-0.382,0.005-0.578-0.032c-0.196-0.038-0.374-0.106-0.534-0.206
			c-0.16-0.099-0.309-0.246-0.443-0.439C33.468,47.791,33.363,47.557,33.29,47.283z M34.418,46.613
			c0.103,0.385,0.258,0.63,0.463,0.737c0.207,0.107,0.457,0.121,0.752,0.042l0.79-0.212c0.298-0.08,0.512-0.218,0.642-0.415
			c0.129-0.197,0.142-0.487,0.039-0.871l-1.031-3.851c-0.104-0.384-0.261-0.627-0.472-0.728s-0.473-0.11-0.782-0.027l-0.755,0.202
			c-0.302,0.081-0.517,0.217-0.643,0.409c-0.126,0.191-0.138,0.479-0.034,0.864L34.418,46.613z"/>
		<path fill="#222222" d="M41.321,45.131l-1.669-6.229l1.22-0.327l1.577,5.886c0.103,0.384,0.258,0.63,0.463,0.737
			c0.207,0.107,0.457,0.121,0.752,0.042l0.79-0.212c0.298-0.08,0.512-0.218,0.641-0.415c0.13-0.197,0.143-0.487,0.04-0.872
			l-1.577-5.886l1.221-0.327l1.669,6.229c0.073,0.274,0.1,0.528,0.079,0.764c-0.021,0.235-0.075,0.436-0.165,0.603
			c-0.089,0.166-0.21,0.315-0.36,0.445c-0.152,0.13-0.314,0.236-0.485,0.317c-0.172,0.081-0.359,0.149-0.564,0.204l-1.169,0.313
			c-0.204,0.055-0.401,0.09-0.59,0.105c-0.189,0.016-0.382,0.005-0.579-0.032c-0.196-0.038-0.375-0.106-0.535-0.206
			c-0.161-0.099-0.309-0.246-0.444-0.439C41.499,45.639,41.395,45.405,41.321,45.131z"/>
		<path fill="#222222" d="M49.862,44.644l-2.119-7.91l1.221-0.327l2.119,7.91L49.862,44.644z"/>
		<path fill="#222222" d="M54.007,43.533l-2.119-7.91l4.861-1.303l0.3,1.116l-3.643,0.976l0.58,2.165l2.888-0.773l0.299,1.116
			l-2.888,0.773l0.643,2.397l3.642-0.976l0.3,1.116L54.007,43.533z"/>
		<path fill="#222222" d="M61.664,41.481l-2.12-7.909l3.147-0.843c0.261-0.07,0.509-0.105,0.741-0.107
			c0.232-0.001,0.466,0.039,0.701,0.12c0.234,0.081,0.443,0.237,0.625,0.465c0.183,0.229,0.322,0.526,0.421,0.894l0.225,0.837
			c0.153,0.571,0.149,1.04-0.012,1.406c-0.16,0.367-0.459,0.669-0.893,0.908l2.59,2.775l-1.435,0.385l-2.511-2.745l-1.115,0.299
			l0.854,3.188L61.664,41.481z M61.73,36.85l1.808-0.484c0.287-0.077,0.487-0.201,0.601-0.373c0.114-0.171,0.129-0.413,0.046-0.725
			l-0.207-0.771c-0.081-0.304-0.216-0.502-0.405-0.594c-0.188-0.093-0.427-0.101-0.712-0.024l-1.798,0.481L61.73,36.85z"/>
		<path fill="#222222" d="M69.885,39.278l-2.12-7.909l4.862-1.303l0.299,1.116l-3.643,0.976l0.58,2.164l2.888-0.773l0.299,1.116
			l-2.888,0.774l0.643,2.397l3.643-0.976l0.299,1.116L69.885,39.278z"/>
		<path fill="#222222" d="M31.41,65.738l0.002-8.543l1.715-0.459l4.273,7.398l-1.361,0.365l-1.347-2.478l-1.988,0.533l0.067,2.821
			L31.41,65.738z M32.613,61.381l1.511-0.405l-1.533-2.822L32.613,61.381z"/>
		<path fill="#222222" d="M39.693,63.519l-2.12-7.909l1.22-0.327l0.879,3.28l2.686-0.72l-0.879-3.28l1.221-0.327l2.119,7.909
			l-1.221,0.327l-0.941-3.513l-2.686,0.72l0.941,3.513L39.693,63.519z"/>
		<path fill="#222222" d="M47.273,59.687l-1.215-4.537c-0.094-0.348-0.117-0.66-0.07-0.938c0.046-0.277,0.151-0.507,0.315-0.689
			c0.164-0.181,0.348-0.331,0.552-0.446c0.204-0.116,0.436-0.209,0.692-0.278l1.169-0.313c0.258-0.069,0.504-0.104,0.738-0.106
			c0.235-0.001,0.469,0.036,0.702,0.111c0.233,0.076,0.439,0.222,0.618,0.439c0.18,0.217,0.315,0.499,0.408,0.847l1.216,4.537
			c0.073,0.274,0.1,0.529,0.08,0.765c-0.021,0.235-0.075,0.436-0.165,0.602c-0.09,0.167-0.21,0.315-0.361,0.446
			c-0.152,0.13-0.313,0.236-0.485,0.317c-0.171,0.081-0.359,0.149-0.564,0.204l-1.168,0.313c-0.205,0.055-0.402,0.09-0.591,0.106
			s-0.382,0.005-0.579-0.032c-0.195-0.037-0.375-0.105-0.535-0.205c-0.161-0.099-0.309-0.246-0.444-0.439
			C47.451,60.194,47.348,59.96,47.273,59.687z M48.401,59.017c0.104,0.384,0.258,0.629,0.464,0.737
			c0.206,0.107,0.457,0.121,0.751,0.042l0.79-0.212c0.299-0.08,0.512-0.218,0.642-0.415c0.129-0.197,0.143-0.487,0.039-0.872
			l-1.031-3.851c-0.104-0.384-0.261-0.627-0.472-0.728s-0.472-0.11-0.782-0.027l-0.755,0.202c-0.302,0.081-0.516,0.217-0.643,0.409
			c-0.126,0.191-0.138,0.479-0.034,0.864L48.401,59.017z"/>
		<path fill="#222222" d="M55.755,59.215l-2.119-7.91l3.146-0.843c0.262-0.07,0.51-0.105,0.742-0.106s0.466,0.039,0.7,0.12
			c0.235,0.081,0.443,0.236,0.625,0.465c0.183,0.229,0.323,0.526,0.422,0.894l0.225,0.837c0.152,0.571,0.148,1.04-0.012,1.406
			c-0.161,0.367-0.459,0.669-0.894,0.908l2.591,2.775l-1.435,0.384L57.236,55.4L56.12,55.7l0.854,3.188L55.755,59.215z
			 M55.821,54.583l1.809-0.484c0.287-0.077,0.487-0.201,0.601-0.373c0.114-0.171,0.129-0.413,0.046-0.725l-0.207-0.77
			c-0.081-0.304-0.216-0.502-0.405-0.595s-0.427-0.101-0.713-0.024l-1.797,0.481L55.821,54.583z"/>
		<path fill="#222222" d="M63.35,57.18l0.003-8.543l1.714-0.459l4.274,7.398l-1.361,0.365l-1.348-2.478l-1.988,0.533l0.068,2.821
			L63.35,57.18z M64.553,52.822l1.512-0.405l-1.534-2.822L64.553,52.822z"/>
	</g>
</g>
</svg>
