<?xml version="1.0" encoding="utf-8"?>
<!-- Generator: Adobe Illustrator 17.0.0, SVG Export Plug-In . SVG Version: 6.00 Build 0)  -->
<!DOCTYPE svg PUBLIC "-//W3C//DTD SVG 1.1//EN" "http://www.w3.org/Graphics/SVG/1.1/DTD/svg11.dtd">
<svg version="1.1" id="Layer_1" xmlns="http://www.w3.org/2000/svg" xmlns:xlink="http://www.w3.org/1999/xlink" x="0px" y="0px"
	 width="335.14px" height="178.557px" viewBox="0 0 335.14 178.557" enable-background="new 0 0 335.14 178.557"
	 xml:space="preserve">
<g>
	<path fill="#FFFFFF" d="M229.913,58.083h-12.752l-0.45,3.774h7.826c1.738,0,3.45,0.696,4.471,1.857
		c0.972,1.103,0.887,4.239,0.887,4.239l-1.735,14.513c-0.179,1.974-1.041,3.369-2.262,4.356c-1.152,0.928-2.816,1.74-4.555,1.74
		h-19.42l1.354-11.32h14.782l0.485-4.064l-9.868,0.115c-1.738,0-3.002-0.581-4.059-1.452c-1.02-1.161-1.287-2.322-1.044-4.354
		l1.784-14.92c0.209-1.744,0.62-3.25,1.972-4.356c1.159-0.986,2.781-1.451,4.519-1.451h19.42L229.913,58.083L229.913,58.083z
		 M255.904,78.751l-1.181,9.87h-19.128c-1.74,0-2.829-0.581-3.595-1.451c-0.766-0.871-1.205-2.032-0.998-3.774l4.372-36.576h12.467
		l-3.822,31.931H255.904L255.904,78.751z M306.63,52.045l-4.376,36.576h-12.463l3.613-30.19h-3.188l-3.613,30.19h-12.752
		l3.611-30.19h-3.188l-3.613,30.19h-12.463l4.376-36.576c0.173-1.451,0.637-2.905,1.611-3.774c0.977-0.871,2.494-1.451,3.942-1.451
		h34.202c1.448,0,2.827,0.581,3.592,1.451C306.687,49.14,306.804,50.593,306.63,52.045L306.63,52.045z M333.782,58.141h-10.725
		l-0.45,3.772h10.725l-1.356,11.322h-10.725l-1.839,15.386H306.66l4.303-35.997c0.211-1.742,0.963-3.193,2.262-4.353
		c1.26-0.871,2.783-1.451,4.519-1.451h17.395L333.782,58.141L333.782,58.141z M221.02,125.195l-1.182,9.87h-19.124
		c-1.74,0-2.832-0.581-3.599-1.453c-0.763-0.869-1.205-2.03-0.997-3.774l4.372-36.576h12.465l-3.818,31.933H221.02L221.02,125.195z
		 M256.192,98.141l-0.421,3.54l-3.992,33.385h-12.465l1.565-13.064h-3.482l-1.559,13.064h-12.465l4.409-36.866
		c0.173-1.453,0.908-2.73,1.882-3.6c0.972-0.873,2.188-1.336,3.923-1.336h19.018h0.053c1.453,0,2.151,0.464,2.917,1.336
		C256.341,95.47,256.367,96.691,256.192,98.141L256.192,98.141z M239.447,104.874l-1.214,10.161h3.477l1.216-10.161H239.447
		L239.447,104.874z M286.817,98.488l-1.32,11.031c-0.069,0.581-0.242,2.034-0.892,2.613c-0.683,0.871-1.299,1.161-2.491,1.453
		c1.122,0.29,1.634,0.867,2.145,1.45c0.51,0.581,0.335,2.034,0.266,2.611l-1.459,12.193c-0.173,1.453-0.602,2.615-1.613,3.774
		c-0.968,0.873-2.491,1.453-4.225,1.453h-21.164l4.997-41.803h21.164c1.735,0,3.119,0.582,3.88,1.452
		C286.872,95.586,286.989,97.038,286.817,98.488L286.817,98.488z M268.562,127.519h3.482l1.179-9.874h-3.478L268.562,127.519
		L268.562,127.519z M271.824,100.231l-1.179,9.868h3.478l1.182-9.868H271.824L271.824,100.231z M314.844,104.527H302.09l-0.45,3.774
		h7.828c1.738,0,3.448,0.696,4.471,1.859c0.97,1.101,0.885,4.238,0.885,4.238l-1.735,14.513c-0.179,1.972-1.041,3.369-2.259,4.354
		c-1.156,0.928-2.82,1.742-4.556,1.742h-19.42l1.354-11.322h14.781l0.485-4.064l-9.868,0.115c-1.738,0-3.002-0.581-4.055-1.45
		c-1.023-1.163-1.289-2.324-1.046-4.356l1.786-14.92c0.207-1.74,0.616-3.25,1.968-4.353c1.161-0.99,2.781-1.453,4.519-1.453h19.42
		L314.844,104.527L314.844,104.527z"/>
	<polygon fill="#F6DA57" points="89.931,0 0,44.639 0,133.917 89.931,178.557 179.867,133.917 179.867,44.639 89.931,0 	"/>
	<path fill="#222222" d="M75.936,103.724l-25.1,25.625c-0.471,0.481-1.246,0.483-1.722,0.005l-10.365-10.431
		c-0.476-0.478-0.481-1.267-0.016-1.754L51.76,103.61c0.465-0.487,0.455-1.271-0.025-1.745L32.727,83.147
		c-0.481-0.473-0.483-1.248-0.002-1.72l10.471-10.326c0.48-0.473,1.264-0.471,1.74,0.005l30.991,30.878
		C76.403,102.458,76.408,103.242,75.936,103.724L75.936,103.724z M88.635,109.495L40.009,61.044
		c-0.478-0.476-0.48-1.257-0.005-1.734l10.367-10.431c0.476-0.476,1.256-0.481,1.734-0.004l36.53,36.399
		c0.478,0.474,1.258,0.474,1.736,0l36.53-36.399c0.478-0.478,1.258-0.473,1.733,0.004l10.369,10.431
		c0.474,0.478,0.471,1.258-0.007,1.734l-48.626,48.451C89.893,109.971,89.113,109.971,88.635,109.495L88.635,109.495z
		 M146.281,83.147l-19.01,18.718c-0.481,0.474-0.492,1.258-0.025,1.745l13.027,13.559c0.467,0.487,0.46,1.276-0.016,1.754
		l-10.367,10.431c-0.474,0.478-1.249,0.476-1.72-0.005l-25.101-25.625c-0.472-0.481-0.469-1.265,0.009-1.74l30.991-30.878
		c0.476-0.476,1.26-0.478,1.741-0.005l10.471,10.326C146.761,81.9,146.761,82.675,146.281,83.147L146.281,83.147z"/>
</g>
</svg>
