<?xml version="1.0" encoding="utf-8"?>
<!-- Generator: Adobe Illustrator 16.0.0, SVG Export Plug-In . SVG Version: 6.00 Build 0)  -->
<!DOCTYPE svg PUBLIC "-//W3C//DTD SVG 1.1//EN" "http://www.w3.org/Graphics/SVG/1.1/DTD/svg11.dtd">
<svg version="1.1" id="Layer_1" xmlns="http://www.w3.org/2000/svg" xmlns:xlink="http://www.w3.org/1999/xlink" x="0px" y="0px"
	 width="72.418px" height="50.964px" viewBox="0 0 72.418 50.964" enable-background="new 0 0 72.418 50.964" xml:space="preserve">
<g>
	<g>
		<g>
			<g>
				<path fill="#F6D742" d="M0.205,18.69c-0.273,0.269-0.273,0.708,0,0.977l10.809,10.63c0.273,0.27,0.279,0.714,0.014,0.991
					L3.621,38.99c-0.265,0.276-0.262,0.724,0.009,0.996l5.894,5.924c0.271,0.271,0.711,0.27,0.979-0.003l14.272-14.553
					c0.269-0.273,0.266-0.718-0.006-0.988L7.148,12.828c-0.271-0.27-0.717-0.271-0.99-0.002L0.205,18.69z"/>
			</g>
			<g>
				<path fill="#FFFFFF" d="M64.774,19.667c0.273-0.269,0.273-0.708,0.001-0.977l-5.955-5.864c-0.273-0.269-0.719-0.268-0.99,0.002
					L40.209,30.365c-0.271,0.27-0.274,0.715-0.005,0.988l14.273,14.553c0.268,0.273,0.708,0.274,0.979,0.003l5.895-5.924
					c0.271-0.272,0.275-0.72,0.009-0.996l-7.407-7.702c-0.266-0.276-0.259-0.721,0.014-0.991L64.774,19.667z"/>
			</g>
			<g>
				<path fill="#FFFFFF" d="M54.741,0.204c-0.27-0.271-0.714-0.272-0.985-0.002L32.983,20.875c-0.271,0.27-0.716,0.27-0.987,0
					L11.224,0.202c-0.271-0.271-0.715-0.269-0.985,0.002L4.343,6.128C4.073,6.4,4.075,6.843,4.346,7.113l27.65,27.518
					c0.271,0.271,0.716,0.271,0.987,0l27.65-27.518c0.271-0.27,0.272-0.713,0.002-0.985L54.741,0.204z"/>
			</g>
		</g>
	</g>
</g>
<g>
	<path fill="#FFFFFF" d="M68.718,43.178c0.62,0,1.228,0.161,1.822,0.479c0.59,0.319,1.05,0.775,1.383,1.369
		c0.33,0.594,0.496,1.213,0.496,1.858c0,0.637-0.163,1.25-0.489,1.84c-0.324,0.589-0.781,1.046-1.368,1.371
		c-0.586,0.326-1.201,0.489-1.843,0.489s-1.255-0.163-1.844-0.489c-0.585-0.325-1.042-0.781-1.373-1.371
		c-0.326-0.589-0.488-1.203-0.488-1.84c0-0.646,0.165-1.265,0.497-1.858c0.333-0.593,0.796-1.05,1.388-1.369
		C67.489,43.338,68.097,43.178,68.718,43.178z M68.718,43.792c-0.521,0-1.028,0.134-1.518,0.399
		c-0.494,0.267-0.877,0.648-1.156,1.145c-0.278,0.495-0.418,1.012-0.418,1.549c0,0.533,0.136,1.044,0.409,1.533
		c0.273,0.49,0.656,0.871,1.146,1.144s1.003,0.411,1.536,0.411s1.045-0.138,1.536-0.411c0.491-0.273,0.872-0.653,1.145-1.144
		c0.27-0.489,0.406-1,0.406-1.533c0-0.537-0.137-1.054-0.413-1.549c-0.277-0.497-0.663-0.878-1.157-1.145
		C69.741,43.926,69.235,43.792,68.718,43.792z M69.905,47.483l0.604,0.175c-0.1,0.409-0.305,0.736-0.625,0.978
		c-0.321,0.244-0.706,0.367-1.163,0.367c-0.575,0-1.043-0.187-1.4-0.56c-0.361-0.373-0.541-0.889-0.541-1.55
		c0-0.432,0.082-0.808,0.245-1.126c0.164-0.32,0.397-0.562,0.699-0.722c0.303-0.163,0.649-0.243,1.038-0.243
		c0.436,0,0.797,0.104,1.084,0.311c0.288,0.209,0.486,0.49,0.591,0.848l-0.586,0.142c-0.096-0.242-0.244-0.428-0.433-0.557
		c-0.191-0.129-0.418-0.194-0.675-0.194c-0.377,0-0.686,0.134-0.93,0.402c-0.244,0.269-0.367,0.654-0.367,1.154
		s0.116,0.88,0.347,1.136c0.229,0.257,0.529,0.384,0.895,0.384c0.294,0,0.552-0.085,0.776-0.256
		C69.687,48.004,69.833,47.773,69.905,47.483z"/>
</g>
</svg>
