<?xml version="1.0" encoding="utf-8"?>
<!-- Generator: Adobe Illustrator 16.0.0, SVG Export Plug-In . SVG Version: 6.00 Build 0)  -->
<!DOCTYPE svg PUBLIC "-//W3C//DTD SVG 1.1//EN" "http://www.w3.org/Graphics/SVG/1.1/DTD/svg11.dtd">
<svg version="1.1" id="Layer_1" xmlns="http://www.w3.org/2000/svg" xmlns:xlink="http://www.w3.org/1999/xlink" x="0px" y="0px"
	 width="79.823px" height="26px" viewBox="0 0 79.823 26" enable-background="new 0 0 79.823 26" xml:space="preserve">
<g>
	<g>
		<path fill="#FFFFFF" d="M21.77,9.595c-0.774,0.018-1.337,0.623-1.343,1.457c-0.005,0.898,0.003,1.797-0.001,2.694
			c-0.005,0.946-0.577,1.583-1.398,1.573c-0.808-0.012-1.343-0.625-1.347-1.568v-2.642c-0.005-0.252-0.043-0.524-0.149-0.747
			c-0.279-0.585-0.939-0.879-1.55-0.739c-0.616,0.141-1.071,0.663-1.091,1.331v2.797c-0.009,0.301-0.088,0.629-0.221,0.893
			c-0.274,0.545-0.907,0.787-1.49,0.643c-0.571-0.141-1.027-0.683-1.041-1.338v-3.004c-0.027-0.811-0.623-1.356-1.393-1.351
			c-0.754,0.007-1.364,0.582-1.382,1.38v3.315c0.16,2.632,2.795,4.464,5.296,3.695c0.576-0.178,1.102-0.522,1.697-0.812
			c0.072,0.051,0.208,0.152,0.35,0.248c1.333,0.896,2.738,1.051,4.171,0.305c1.429-0.744,2.256-1.945,2.326-3.59v-3.108
			C23.191,10.188,22.563,9.577,21.77,9.595z M7.151,15.11c-0.907-0.005-1.814,0.006-2.722-0.002
			c-0.687-0.006-1.215-0.363-1.366-1.025c-0.107-0.469-0.075-0.971-0.106-1.482c1.442,0,2.776,0.005,4.11-0.005
			c0.217-0.002,0.449-0.028,0.646-0.11c0.614-0.258,0.926-0.894,0.806-1.569c-0.11-0.615-0.684-1.1-1.368-1.106
			C5.785,9.796,4.417,9.806,2.975,9.806c0-0.74,0.004-1.411-0.001-2.082C2.966,6.77,2.343,6.119,1.459,6.134
			C0.586,6.149,0.002,6.779,0.001,7.717C-0.001,9.651,0,11.586,0,13.521c0,2.688,1.965,4.674,4.626,4.677
			c0.839,0.001,1.678,0.001,2.517-0.001c1.029-0.002,1.723-0.639,1.716-1.57C8.854,15.704,8.197,15.117,7.151,15.11z M48.956,9.668
			c-1.732-0.23-3.404-0.055-4.543,1.485c-1.023,1.383-1.137,2.956-0.41,4.508c0.74,1.584,2.088,2.395,3.791,2.52
			c1.074,0.079,2.156,0.024,3.234,0.014c0.732-0.008,1.279-0.571,1.271-1.275c-0.01-0.7-0.514-1.188-1.273-1.198
			c-0.805-0.012-1.609,0.019-2.412-0.012c-0.438-0.017-0.881-0.087-1.307-0.199c-0.359-0.095-0.611-0.351-0.652-0.823h0.582
			c1.334,0,2.67,0.006,4.004-0.002c1.018-0.006,1.395-0.399,1.357-1.428c-0.008-0.272-0.051-0.554-0.139-0.811
			C51.883,10.766,50.643,9.894,48.956,9.668z M47.133,12.734c-0.131,0-0.264-0.018-0.396-0.027c0.111-0.607,0.65-0.941,1.453-0.927
			c0.803,0.016,1.287,0.332,1.398,0.956C48.764,12.736,47.95,12.737,47.133,12.734z M41.731,15.112
			c-0.461-0.02-0.924,0.008-1.385-0.008c-0.625-0.021-1.226-0.501-1.308-1.117c-0.058-0.436,0-0.885,0-1.386h2.927
			c0.668-0.167,1.068-0.894,0.979-1.609c-0.082-0.658-0.641-1.166-1.348-1.182l-2.578-0.005c-0.033-0.097,0-0.129,0-0.16
			c-0.006-0.621-0.005-1.242-0.013-1.864C38.992,6.803,38.41,6.15,37.54,6.134c-0.912-0.018-1.524,0.61-1.533,1.627
			c-0.015,1.933-0.031,3.867,0,5.8c0.038,2.379,1.4,4.053,3.71,4.536c0.627,0.132,1.293,0.092,1.939,0.096
			c0.916,0.006,1.605-0.648,1.625-1.508C43.303,15.8,42.678,15.155,41.731,15.112z M59.54,9.807
			c-0.666-0.012-1.334-0.009-2.002-0.001c-2.33,0.025-4.109,1.841-4.119,4.192v1.192c0,0.483-0.002,0.968,0.002,1.451
			c0.006,0.869,0.621,1.557,1.387,1.556c0.762-0.001,1.373-0.686,1.383-1.565c0.01-0.847,0-1.693,0.004-2.541
			c0.004-0.927,0.543-1.475,1.469-1.488c0.615-0.009,1.232,0.002,1.848-0.003c0.818-0.006,1.443-0.587,1.463-1.352
			C60.993,10.459,60.368,9.822,59.54,9.807z M25.764,9.595c-0.873-0.02-1.516,0.635-1.528,1.579
			c-0.012,0.897-0.002,1.795-0.002,2.692c0,0.896-0.007,1.795,0.001,2.691c0.009,0.924,0.678,1.648,1.498,1.639
			c0.817-0.01,1.483-0.748,1.486-1.659c0.003-1.777,0.003-3.555,0-5.332C27.216,10.289,26.603,9.614,25.764,9.595z M25.741,5.776
			c-0.802-0.01-1.494,0.688-1.503,1.514c-0.01,0.856,0.625,1.514,1.468,1.518c0.844,0.005,1.504-0.643,1.515-1.482
			C27.23,6.511,26.538,5.787,25.741,5.776z M33.983,15.112c-0.461-0.02-0.924,0.008-1.385-0.008
			c-0.625-0.021-1.227-0.501-1.309-1.117c-0.058-0.436,0-0.885,0-1.386h2.928c0.667-0.167,1.068-0.894,0.978-1.609
			c-0.083-0.658-0.64-1.166-1.347-1.182l-2.579-0.005c-0.033-0.097,0-0.129,0-0.16c-0.005-0.621-0.005-1.242-0.013-1.864
			c-0.013-0.979-0.595-1.631-1.465-1.647c-0.911-0.018-1.524,0.61-1.532,1.627c-0.016,1.933-0.032,3.867,0,5.8
			c0.038,2.379,1.401,4.053,3.711,4.536c0.626,0.132,1.292,0.092,1.939,0.096c0.916,0.006,1.604-0.648,1.625-1.508
			C35.555,15.8,34.929,15.155,33.983,15.112z M79.823,6.793c-0.611,0.274-1.27,0.459-1.959,0.542c0.703-0.426,1.246-1.101,1.5-1.905
			c-0.66,0.395-1.391,0.682-2.168,0.836c-0.621-0.67-1.508-1.088-2.49-1.088c-1.885,0-3.412,1.542-3.412,3.444
			c0,0.271,0.029,0.533,0.088,0.785c-2.836-0.144-5.35-1.515-7.033-3.599c-0.293,0.509-0.461,1.1-0.461,1.731
			c0,1.195,0.602,2.249,1.518,2.867c-0.561-0.019-1.086-0.173-1.547-0.432v0.044c0,1.669,1.178,3.061,2.738,3.377
			c-0.287,0.079-0.588,0.121-0.9,0.121c-0.219,0-0.432-0.022-0.641-0.062c0.434,1.367,1.693,2.363,3.188,2.392
			c-1.168,0.924-2.639,1.475-4.238,1.475c-0.275,0-0.547-0.017-0.814-0.048c1.51,0.977,3.305,1.547,5.23,1.547
			c6.277,0,9.711-5.248,9.711-9.8c0-0.149-0.004-0.298-0.012-0.445C78.788,8.09,79.366,7.483,79.823,6.793z"/>
	</g>
</g>
</svg>
