<?xml version="1.0" encoding="utf-8"?>
<!-- Generator: Adobe Illustrator 16.0.0, SVG Export Plug-In . SVG Version: 6.00 Build 0)  -->
<!DOCTYPE svg PUBLIC "-//W3C//DTD SVG 1.1//EN" "http://www.w3.org/Graphics/SVG/1.1/DTD/svg11.dtd">
<svg version="1.1" id="Layer_1" xmlns="http://www.w3.org/2000/svg" xmlns:xlink="http://www.w3.org/1999/xlink" x="0px" y="0px"
	 width="69.361px" height="64.624px" viewBox="0 0 69.361 64.624" enable-background="new 0 0 69.361 64.624" xml:space="preserve">
<g>
	<g>
		<path fill="#222120" d="M36.684,59.958c0,0,1.022-2.423,2.733-3.294c2.009-1.021,3.756-1.152,4.481-1.943
			C43.898,54.721,43.041,60.979,36.684,59.958z"/>
		<path fill="#222120" d="M43.898,59.003c0,0,0.592-2.964,2.107-4.282c1.516-1.317,3.623-3.129,3.951-4.019
			C49.957,50.702,50.123,58.18,43.898,59.003z"/>
		<path fill="#222120" d="M35.629,60.814c0,0,5.633-0.658,11.793,3.723C47.422,64.537,39.056,65.525,35.629,60.814z"/>
		<path fill="#222120" d="M43.305,60.071c0,0,5.072-2.55,12.354,0.151C55.658,60.223,47.751,64.334,43.305,60.071z"/>
		<path fill="#222120" d="M50.584,56.664c0,0,3.461-4.052,11.86-3.36C62.444,53.304,56.515,59.365,50.584,56.664z"/>
		<path fill="#222120" d="M51.375,55.291c0,0-0.559-1.822,0-3.601c0.561-1.78,3.195-5.37,3.459-6.589
			C54.834,45.102,56.321,52.432,51.375,55.291z"/>
		<path fill="#222120" d="M56.811,51.098c0,0,1.746-4.811,10.541-6.458c0,0-0.922,0.726-1.646,1.78
			C64.98,47.473,60.93,51.822,56.811,51.098z"/>
		<path fill="#222120" d="M57.173,49.351c0,0-1.12-2.009-0.856-3.92s1.548-6.556,1.45-7.115
			C57.767,38.315,61.093,45.628,57.173,49.351z"/>
		<path fill="#222120" d="M61.422,43.834c0,0,0.232-2.916,2.472-5.189c2.239-2.272,4.611-2.701,5.468-3.36
			C69.361,35.284,66.793,43.191,61.422,43.834z"/>
		<path fill="#222120" d="M61.191,42.005c0,0-1.746-1.548-2.108-3.985s-0.065-6.062-0.329-6.787
			C58.754,31.232,64.157,37.162,61.191,42.005z"/>
		<path fill="#222120" d="M63.598,35.549c-0.101,0.031-0.594-5.897,5.236-9.554C68.834,25.995,69.033,33.869,63.598,35.549z"/>
		<path fill="#222120" d="M62.74,34.033c0,0,1.812-5.402-4.578-9.422c0,0,0.789,1.615,1.152,3.295
			C59.676,29.586,60.435,32.188,62.74,34.033z"/>
		<path fill="#222120" d="M63.729,27.28c0,0-2.391-3.262,2.461-10.015c0,0-0.01,2.57,0,4.184
			C66.199,23.064,66.396,26.259,63.729,27.28z"/>
		<path fill="#222120" d="M62.576,25.995c0,0,0.263-5.106-7.05-7.741c0,0,1.523,1.443,2.371,3.064
			C59.052,23.525,61.357,25.83,62.576,25.995z"/>
		<path fill="#222120" d="M62.016,19.77c0,0-3.558-2.965-0.361-9.652c0,0,0.528,2.24,0.922,3.13
			C62.971,14.137,64.124,17.266,62.016,19.77z"/>
		<path fill="#222120" d="M60.57,18.812c0,0-0.729-4.709-8.537-5.565c0,0,2.307,1.812,3.13,2.783
			C55.986,17.003,59.32,18.616,60.57,18.812z"/>
		<path fill="#222120" d="M58.458,13.445c0,0-4.513-3.196-3.196-9.061c0,0,1.187,1.252,2.01,2.406
			C58.096,7.943,59.545,10.842,58.458,13.445z"/>
		<path fill="#222120" d="M56.744,12.621c0,0-1.581-3.855-9.422-2.834c0,0,2.043,0.792,3.428,1.517
			C52.133,12.028,54.666,13.285,56.744,12.621z"/>
		<path fill="#222120" d="M53.153,8.207c0,0,0.825-4.612-5.006-6.853C48.147,1.354,49.136,6.891,53.153,8.207z"/>
		<path fill="#222120" d="M51.475,7.976c0,0-3.162-3.228-9.586,0c0,0,0.658-0.196,2.338,0C45.906,8.174,49.234,9.459,51.475,7.976z"
			/>
		<path fill="#222120" d="M47.159,4.979c0,0-3.888,0.362-6.556-4.645c0,0,1.316,0.428,2.174,0.626S47.225,1.651,47.159,4.979z"/>
	</g>
	<g>
		<path fill="#222120" d="M32.73,59.958c0,0-1.021-2.423-2.734-3.294c-2.01-1.021-3.754-1.152-4.48-1.943
			C25.516,54.721,26.373,60.979,32.73,59.958z"/>
		<path fill="#222120" d="M25.516,59.003c0,0-0.592-2.964-2.107-4.282c-1.516-1.317-3.624-3.129-3.953-4.019
			C19.455,50.702,19.291,58.18,25.516,59.003z"/>
		<path fill="#222120" d="M33.784,60.814c0,0-5.633-0.658-11.792,3.723C21.992,64.537,30.359,65.525,33.784,60.814z"/>
		<path fill="#222120" d="M26.109,60.071c0,0-5.073-2.55-12.354,0.151C13.755,60.223,21.662,64.334,26.109,60.071z"/>
		<path fill="#222120" d="M18.828,56.664c0,0-3.459-4.052-11.857-3.36C6.971,53.304,12.9,59.365,18.828,56.664z"/>
		<path fill="#222120" d="M18.038,55.291c0,0,0.56-1.822,0-3.601c-0.56-1.78-3.195-5.37-3.46-6.589
			C14.578,45.102,13.092,52.432,18.038,55.291z"/>
		<path fill="#222120" d="M12.602,51.098c0,0-1.744-4.811-10.54-6.458c0,0,0.923,0.726,1.646,1.78
			C4.433,47.473,8.485,51.822,12.602,51.098z"/>
		<path fill="#222120" d="M12.24,49.351c0,0,1.121-2.009,0.856-3.92c-0.263-1.911-1.548-6.556-1.448-7.115
			C11.648,38.315,8.32,45.628,12.24,49.351z"/>
		<path fill="#222120" d="M7.99,43.834c0,0-0.23-2.916-2.47-5.189c-2.239-2.272-4.612-2.701-5.468-3.36
			C0.053,35.284,2.621,43.191,7.99,43.834z"/>
		<path fill="#222120" d="M8.223,42.005c0,0,1.744-1.548,2.107-3.985c0.362-2.438,0.065-6.062,0.33-6.787
			C10.66,31.232,5.256,37.162,8.223,42.005z"/>
		<path fill="#222120" d="M5.817,35.549c0.099,0.031,0.593-5.897-5.237-9.554C0.58,25.995,0.382,33.869,5.817,35.549z"/>
		<path fill="#222120" d="M6.672,34.033c0,0-1.811-5.402,4.58-9.422c0,0-0.79,1.615-1.152,3.295S8.98,32.188,6.672,34.033z"/>
		<path fill="#222120" d="M5.686,27.28c0,0,2.392-3.262-2.462-10.015c0,0,0.011,2.57,0,4.184C3.215,23.064,3.018,26.259,5.686,27.28
			z"/>
		<path fill="#222120" d="M6.838,25.995c0,0-0.264-5.106,7.049-7.741c0,0-1.523,1.443-2.371,3.064
			C10.363,23.525,8.057,25.83,6.838,25.995z"/>
		<path fill="#222120" d="M7.398,19.77c0,0,3.557-2.965,0.361-9.652c0,0-0.528,2.24-0.924,3.13
			C6.443,14.137,5.289,17.266,7.398,19.77z"/>
		<path fill="#222120" d="M8.844,18.812c0,0,0.729-4.709,8.535-5.565c0,0-2.306,1.812-3.129,2.783
			C13.427,17.003,10.092,18.616,8.844,18.812z"/>
		<path fill="#222120" d="M10.955,13.445c0,0,4.514-3.196,3.195-9.061c0,0-1.186,1.252-2.009,2.406
			C11.318,7.943,9.869,10.842,10.955,13.445z"/>
		<path fill="#222120" d="M12.668,12.621c0,0,1.582-3.855,9.422-2.834c0,0-2.043,0.792-3.426,1.517S14.746,13.285,12.668,12.621z"/>
		<path fill="#222120" d="M16.26,8.207c0,0-0.824-4.612,5.006-6.853C21.266,1.354,20.279,6.891,16.26,8.207z"/>
		<path fill="#222120" d="M17.939,7.976c0,0,3.161-3.228,9.586,0c0,0-0.658-0.196-2.338,0C23.507,8.174,20.18,9.459,17.939,7.976z"
			/>
		<path fill="#222120" d="M22.254,4.979c0,0,3.889,0.362,6.557-4.645c0,0-1.318,0.428-2.174,0.626
			C25.779,1.158,22.188,1.651,22.254,4.979z"/>
	</g>
</g>
</svg>
