<?xml version="1.0" encoding="utf-8"?>
<!-- Generator: Adobe Illustrator 16.0.0, SVG Export Plug-In . SVG Version: 6.00 Build 0)  -->
<!DOCTYPE svg PUBLIC "-//W3C//DTD SVG 1.1//EN" "http://www.w3.org/Graphics/SVG/1.1/DTD/svg11.dtd">
<svg version="1.1" id="Layer_1" xmlns="http://www.w3.org/2000/svg" xmlns:xlink="http://www.w3.org/1999/xlink" x="0px" y="0px"
	 width="45.126px" height="119.228px" viewBox="0 0 45.126 119.228" enable-background="new 0 0 45.126 119.228"
	 xml:space="preserve">
<path fill="#010101" d="M41.438,28.385c-0.814-1.563-1.386-2.854-2.856-3.847c-1.913-1.293-2.109-1.626-3.156-3.754
	c-1.658-3.37-4.003-4.132-7.461-4.693c-4.212-0.684-1.664-4.109-1.131-6.916c0,0,0-0.001,0-0.001
	c1.246-4.836-0.624-9.527-7.499-9.152s-5.508,7.036-5.508,7.036c-0.271,1.009-0.886,0.506-1.172,1.255
	c-0.469,1.228-1.116,3.3,1.139,4.69l-0.178,1.658l-0.845,1.056c-1.909,0.914-4.117,1.582-5.701,2.957
	c-1.214,1.054-1.92,2.765-3.005,3.759c-1.498,1.373-2.709,1.062-3.6,3.163c-0.666,1.572-0.445,2.82-0.364,4.482
	c0.183,3.771-0.472,7.148,0.998,10.395c1.327,2.932,1.848,5.567,2.839,8.577c2.598,2.057,0.537,3.318-0.717,5.509
	C1.62,57.354,2.2,59.353,2.799,62.221c0.8,3.834,1.901,5.43,4.951,7.936c0.349,0.286,0.698,0.554,1.047,0.811
	c1.052,1.254,2.147,2.688,3.295,3.786c1.426,1.365,3.31,2.717,4.909,3.872c1.602,1.157,3.627,2.217,3.75,4.347
	c0.143,2.461-1.624,3.923-2.663,6c-1.124,2.245-2.003,4.397-2.334,6.879c-0.306,2.296-0.12,4.454-2.504,5.622
	c-1.023,0.501-1.588,0.256-2.34,1.125c-0.969,1.118-0.507,1.333,0.569,1.897c0.42,2.758-3.76,4.96-3.856,7.603
	c-0.119,3.274,3.916,2.057,5.759,2.494c2.314,0.548,2.419,3.789,4.366,4.509c1.178,0.436,2.265-0.337,3.253-1.037
	c0.822-0.583,1.187-1.554,2-1.959c0.956-0.476,2.238-0.203,3.24-0.51c1.178-0.361,2.403-1.112,3.287-1.962
	c2.21-2.125-0.783-2.802-2.653-3.156c-1.424-0.27-1.905-0.298-2.219-1.854c-0.206-1.023-0.255-2.246,0.375-3.118
	c0.775-1.072,4.731-2.104,3.318-3.875c-0.764-0.958-2.064-0.27-1.846-1.784c0.132-0.916,1.322-2.017,1.899-2.747
	c3.144-3.976,6.505-7.243,8.688-11.75c1.017-2.1,2.542-3.514,2.409-6c-0.051-0.966-0.29-1.811-0.595-2.625
	c-0.153-2.153-1.767-4.443-2.749-6.255c-1.586-2.927-3.59-5.798-5.701-8.499c-1.019-1.304-2.088-2.573-3.173-3.796
	c-0.738-0.832-2.481-2.108-2.951-3.173c-1.972-4.467,5.071-3.335,7.067-3.76c1.617-0.344,2.729-0.771,3.703-2.21
	c0.716-1.058,1.552-3.222-0.76-2.937c-0.293-2.072,3.583-2.435,5.036-2.971c2.081-0.768,3.296-1.676,4.598-3.543
	C46.949,35.317,43.446,32.241,41.438,28.385z M32.419,40.431c-1.667,2.833-3.583,2.5-3.583,2.5c2.167-5.917,2.083-8,1.833-9.25
	s1.5-1,2.333-0.833s0.917,2.167,3,3.167C36.002,36.015,34.086,37.598,32.419,40.431z"/>
</svg>
