<?xml version="1.0" encoding="utf-8"?>
<!-- Generator: Adobe Illustrator 15.0.0, SVG Export Plug-In . SVG Version: 6.00 Build 0)  -->
<!DOCTYPE svg PUBLIC "-//W3C//DTD SVG 1.1//EN" "http://www.w3.org/Graphics/SVG/1.1/DTD/svg11.dtd">
<svg version="1.1" id="Layer_1" xmlns="http://www.w3.org/2000/svg" xmlns:xlink="http://www.w3.org/1999/xlink" x="0px" y="0px"
	 width="66px" height="110px" viewBox="0 0.3 66 110" style="enable-background:new 0 0.3 66 110;" xml:space="preserve">
<style type="text/css">
<![CDATA[
	.st0{fill:#010101;}
]]>
</style>
<g>
	<path class="st0" d="M61.6,105.9c-0.5-2-2-1.8-2.5-3.7c-0.1-0.4-0.4-0.7-0.5-1.1c-0.1,0-0.2,0-0.3-0.1c0-0.6-0.2-1.3-0.4-1.7
		c0.5,0,0.9,0.2,1.3,0.2c0.3,0,0.7-0.2,1.2-0.2c-0.3-0.2-0.7-0.2-1-0.3c0-1.1-0.9-1.5-1.7-1c0-0.9-0.9-0.8-1.3-1.5
		c-0.4-0.6-0.6-1.6-0.7-2.3c-0.3-1.7-0.2-3.5-0.3-5.3c-0.1-1.9,0.1-3.6-0.2-5.4c-0.2-1.2-0.6-3.4-1.3-4.2v0.1
		c-0.1-1.6,0-3.2-0.4-4.8c-0.2-0.7-0.6-1.4-0.6-2.2c0-0.8,0.3-1.5,0.3-2.3c0-1.7-0.4-3.3-0.8-4.9c-0.6-2.4-1.7-4.5-2.9-5.8
		c-0.4-0.4-1-1.1-1.5-1.5c0.5-0.5,0-1.4-0.1-1.9c-0.2-0.7-0.2-1.5-0.6-2.2c-0.4-0.8-0.9-0.8-1.4-1c-1-0.5-0.8-0.8-1.1-1.7
		c-0.4-1.3-2.2-1.7-2.4-3.1c-0.3-1.4,0.3-2.7,0.2-4.1c1.2,0.2,3-1,4.2-1.4c2.1-0.7,4.3-1.2,6.4-1.9c0.8-0.3,1.6-0.7,2.3-1.1
		c1-0.4,1-0.6,1.5-1.4c0.7-1.1,2.1-2,3.1-2.7c0.9-0.6,0.7-1.1,0.5-2.1l0-0.1c-0.1-1.2-0.9-3-1.7-3.9c-0.9-1-2.1-2.3-3-3.3
		c-0.8-0.8-1.6-1.1-2.2-1.4c-0.6-0.3-0.9-0.7-1-1.5c-0.2-1.4-2-2.8-3.4-3.3c-0.7-0.2-1.4-0.4-2-0.6l-0.1,0c-0.2,0.1-0.6,0.1-0.9,0
		c-0.5-0.2-0.8-0.4-1.4-0.5c-0.6-0.1-1.1-0.3-1.8-0.2c-0.3,0.1-0.6,0.3-0.8,0.3c-0.7-0.2-1.5-0.3-2.3-0.4c-0.6-0.1-1.2-0.3-1.6-0.6
		c-0.2-0.1-0.4-0.1-0.5-0.4c0-0.1,0.1-0.4,0.1-0.6c0.1-0.5,0.4-0.9,0.5-1.4c0.1-0.5-0.1-1.1,0.1-1.5c0.6,0.3,1-0.2,1.1-1.6
		c0-0.4,0.2-0.9,0.1-1.2c0-0.1,0-0.2,0-0.3c-0.2-0.5-0.6-0.5-1.1-0.1c-0.4-0.3,0-1.6,0-2.1c0-0.4,0-0.8-0.1-1.1
		c-0.1-0.3-0.2-1.1-0.2-1.1L38,6.4C37.8,6,37.8,5,37.4,4.5c-0.3-0.4-0.2-0.9-0.6-0.9c0.1-0.1,0.1-0.3,0.1-0.4
		c-0.2,0.1-0.4,0.1-0.6,0c0-0.1,0-0.1,0-0.2c-0.2,0-0.2-0.1-0.3-0.1c0,0,0,0.1-0.1,0.1c-0.2-0.8-0.9-1.3-1.7-1c0-0.1,0-0.1,0-0.2
		c-0.2,0-0.3,0-0.4,0.1c-0.3-0.2-1,0.2-1.3,0.3c0,0-0.3,0-0.4,0c0,0,0-0.1,0-0.1c-0.2,0-0.3,0-0.5,0c-0.1,0.1-0.2,0.2-0.3,0.3
		c-0.3-0.1-1.2-0.1-1.3,0.3c-0.6-0.1-1,1-1.3,1.8c-0.2,0.5-0.4,0.7-0.4,1.3c-0.1,0.9-0.6,0.6-0.7,2.3c0,0.6,0.1,1.2,0.1,1.7
		c0,0.4,0.3,1.3-0.3,1.3c-0.2-0.7-0.8-0.2-0.9,0.2c-0.1,0.5,0.1,0.8,0.2,1.2c0.1,0.3,0.2,2.7,1.1,1.4c0,0.6-0.3,1.3-0.1,1.9
		c0.2,0.5,0.8,1.1,0.5,1.6l0-0.1c-0.7,0.8-2,0.6-3,0.6c-0.5,0-1.1,0.1-1.5,0.1c-0.5-0.1-0.9-0.3-1.4-0.3c-2.3-0.2-4.5,0.1-6.6,1.1
		c-1.1,0.5-1.9,1.2-2.5,2.2c-0.3,0.5-0.4,0.9-0.9,1.2c-0.4,0.3-1,0.4-1.4,0.7C10,23.5,9.5,24.3,8.7,25c-0.9,0.8-1.5,1.3-2.3,2.2
		c-0.5,0.6-1.2,1.5-1.6,2.5c-0.2,0.6-0.3,1.1-0.5,1.7c-0.2,1,0.8,1.7,1.2,2l0,0.1c0.4,0.3,1.3,1.3,1.7,2c0.5,1,1,1.8,2.2,2.4
		c1,0.5,1.5,1.1,2.6,1.4c0.3,0.1,1.2,0.6,1.9,0.9c0.5,0.3,1.1,0.5,1.7,0.7c0.9,0.4,2.5,0.9,3.2,1.4c0.5,0.4,0.2,0.8,0.9,0.9
		c0.3,0.1,1.4-0.2,1.6,0c0,0,0.1,0,0.1,0c-0.4,0.5,0,0.5,0.2,0.7c0.1,0.1,0.2-0.3,0.3,0l0,0c0.1,0.6,0.1,1.4,0.1,2.1
		c0,0.4,0,0.7,0.1,1c0,0.4-0.2,0.6-0.2,1c0,0.2,0.1,0.3,0.1,0.4c0,0.2-0.1,0.3-0.1,0.5c0,0.5,0,0.5-0.3,0.9c-0.6,0.8-0.8,2-1,2.9
		c-0.2,0.7-1,1.2-1.5,1.7l0-0.1c-0.6,0.9-0.6,2.1-1,2.8c-0.1,0.2,0,0.5,0,0.7c-0.1,0.2-0.3,0.5-0.3,0.7c-0.1,0.4-0.3,1.1-0.3,1.5
		c0,0.7,0.6,1.2,0.7,1.8l0-0.1c0.1,1-0.6,2.1-0.7,3.2c-0.1,1.1,0,2.2,0,3.3c0.1,2.3,0.1,3.7,1,5.8c0.2,0.5,1.1,1.6,1.4,2
		c0.2,0.4,0.3,0.8,0.3,1.1l0.1,0.1c0.1,0.9-0.2,1.3-0.1,2.1c0,0.3,0.3,0.7,0.4,1c0.1,0.2,0,0.5,0,0.7c0,0.2,0.2,0.5,0.2,0.7
		c0.4,1.3-0.2,2.8,0,4.2c0.2,1.5,1,3,1.6,4.3c0.6,1.3,1.3,2.5,1.9,3.8c0.5,1.1,1.3,2.7,1.3,3.9c-0.5,0-0.5,0.7-0.8,0.7
		c-0.4,0-0.2,0.7-0.3,1c-0.4,0.6-1.3,0.8-1.6,1.6c0.4-0.4,0.8-0.6,1.3-0.7c0,0,0,0,0,0c-0.1-0.2-1.3,1.4-1.4,1.5
		c-0.4,0.5-1.1,0.9-1.7,1.3c-0.6,0.5-1.2,0.8-1.4,1.6c-0.3,0.7-0.1,1.6-0.3,2.4l0.1,0.1c2.7,1.5,6,1.1,8.2-1.1c0.6-0.6,1-1.2,2-1.5
		c0.8-0.2,1.6-0.3,2.4-0.6c1.8-0.8,0.8-2.1,0.4-3.6c-0.3-1.1-1.1-3.3-1.5-3.8c-0.6-0.8-1.1,0.2-1.5-0.5c-0.4-0.6-0.2-2.1-0.2-2.8
		c0-1.9,0.1-3.5,0.5-5.3c0.4-1.7,0.4-2.8-0.4-4.4c-0.7-1.4-1.9-2.6-1.3-4.1c0.6-1.4,0.9-2.9,1.3-4.3c0.2-0.6,0.8-1.6,1.1-2l0-0.2
		c0.3-0.4,0.5-0.8,0.7-1.2c0.7-1.3,1.1-2.7,1.6-4c0.2-0.6,0.3-1.9,0.7-2.4c0.6-0.9,0.6,0.5,1.2,0.9l0.2,0.4c0.7,1.6,2,3.1,3.3,4
		c1.3,0.9,1.8,1.7,3,2.2c0.9,0.4,0.9,0.7,1.7,1.3c0.7,0.6,1.5,0.9,2,1.7l0.2,0.3c0.3,0.5,0.6,0.9,0.9,1.2L46,78
		c0.8,0.5,0.1,3.7,0.1,4.6c-0.1,1.4,0.1,3.6,1.1,4.7c0.5,0.6,1,0.8,1.4,1.6c0.4,0.7,0.7,1.2,1,1.8c0.4,0.6,0.8,1.6,1,2.5
		c0.2,1-0.1,1.2-0.8,1.8c-0.6,0.5-1.3,1.1-1.8,1.5c-0.6,0.5-1.1,0.9-1,1.8l-0.1,0c0,3.3,4.4,3.7,5.6,6.1c0.6,1.2,0.8,2.7,2.1,3.4
		c1.3,0.7,3,1,4.6,1C61,108.8,62,107.8,61.6,105.9z M44.1,39.3c1.5-2.3,3.2-4.5,4.7-6.7c0.6,0.4,1.2,0.9,1.8,1.2
		c0,0.1-0.1,0.4-0.1,0.4c0.1,1.4-2.3,2.3-3.3,2.9C46.4,37.5,45.1,39.4,44.1,39.3C44.1,39.3,44,39.3,44.1,39.3l-0.1,0
		C44,39.2,44,39.3,44.1,39.3z M21,39c-1.2,0.3-1.5-0.7-2.3-1.3c-0.2-0.2-0.4-0.2-0.6-0.4c-0.1-0.2-0.1-0.5-0.3-0.6
		c-0.3-0.3-0.8-0.5-1.1-0.8c-0.7-0.5-1.3-1.5-1.6-2.3c-0.1-0.2-0.3-1.4-0.3-1.5c0.1-0.1,1.1-0.7,1.2-0.6c0,0,0.1,0,0.1-0.1
		c0.4,0.8,1,1.5,1.6,2.2c0.6,0.7,0.9,1.6,1.6,2.3c0.7,0.7,1,1.5,1.6,2.2l-0.1,0C20.9,38.3,21,38.7,21,39z"/>
	<path class="st0" d="M44.1,39.3c0,0-0.1,0-0.1,0L44.1,39.3C44,39.3,44.1,39.3,44.1,39.3z"/>
</g>
</svg>
