<?xml version="1.0" encoding="utf-8"?>
<!-- Generator: Adobe Illustrator 15.0.0, SVG Export Plug-In . SVG Version: 6.00 Build 0)  -->
<!DOCTYPE svg PUBLIC "-//W3C//DTD SVG 1.1//EN" "http://www.w3.org/Graphics/SVG/1.1/DTD/svg11.dtd">
<svg version="1.1" id="Layer_1" xmlns="http://www.w3.org/2000/svg" xmlns:xlink="http://www.w3.org/1999/xlink" x="0px" y="0px"
	 width="66px" height="110px" viewBox="0 0.3 66 110" style="enable-background:new 0 0.3 66 110;" xml:space="preserve">
<style type="text/css">
<![CDATA[
	.st0{fill:#010101;}
]]>
</style>
<g>
	<path class="st0" d="M42.5,74.7L42.5,74.7C42.4,74.7,42.4,74.7,42.5,74.7L42.5,74.7z"/>
	<path class="st0" d="M53.2,38.9c-0.1-1.1-0.5-2.4-0.9-3.5c-0.4-1.1-0.7-2.1-0.6-3.3c0.1-1.1-0.4-2.4-0.8-3
		c-0.5-0.9-1.4-1.6-2.4-1.9c-0.7-0.2-0.8-0.1-1.1-0.8c-0.2-0.5-0.5-0.7-0.7-1.1c-0.3-0.5-0.5-0.9-1-1.2c-0.4-0.3-0.9-0.6-1.3-0.9
		c-0.9-0.5-1.5-0.6-2.3-1.4L42,21.7c-0.4-0.4-1-0.9-1.1-1.5c0-0.3,0.2-0.7,0.3-1c0-0.4,0-0.7,0.1-1.1h0.3c0.4,0.2,0.7-0.2,1-0.8
		c0.2-0.4,0.3-0.9,0.4-1.4c0.1-0.4,0.1-1.1-0.2-1.4c-0.5-0.5-0.8,0.2-1.3,0.1c0-0.6,0.1-1.2,0.2-1.7c0.2-1.1,0.1-2.1,0-3.2
		c-0.1-0.5-0.2-1-0.4-1.5c-0.1-0.3-0.6-0.8-0.4-1c-0.2-0.1-0.4-0.2-0.6-0.4c-0.1-0.2-0.2-0.5-0.3-0.6C39.9,6,39.6,6,39.4,5.8
		c-0.4-0.3-0.5-0.9-1-0.9c-0.4-0.1-1.2,0.3-1.5,0c-0.5-0.4-0.9,0.4-1.4,0.3c-0.6-0.1-0.6,0.2-1.2,0.2c-0.7,0-1.3,0.1-1.8,0.7
		c-0.3,0.4-0.9,0.8-0.9,1.5c0,0.6-0.8,0.2-0.5,1.1c0,0-0.1,0-0.2-0.1c-0.1,0.2-0.1,0.3-0.2,0.5c0.3,0.5-0.6,2-0.7,2.6
		c-0.1,0.9,0,1.9,0,2.8c-0.1-0.1-0.3-0.2-0.5,0c-0.3,0.4-0.1,1,0,1.4c0.1,0.5,0.3,0.9,0.2,1.6C29.5,18,30,18,30.1,18.8
		c0.1,0.5,0.2,1,0.3,1.5l0,0c-0.8,0.3-1.9-0.5-2.7-0.7c-1.2-0.4-2.1-0.3-3.3,0.1c-1.1,0.4-2.1,1.1-2.8,1.9c-0.9,0.9-1.3,2-1.6,3
		c-0.1,0.6-0.9,0.7-1.4,1s-1,0.8-1.4,1.2c-0.9,1-0.9,1.9-1.9,3.3c-0.6,0.8-1.2,1.8-1.7,2.6c-0.5,0.8-0.4,1.9-0.8,2.7l0.1-0.3
		c-0.4,0.9-0.1,1.7,0.7,2.8c0.6,0.8,1.2,2,2,3c0.4,1,1.5,1.6,2.1,1.9c0.7,0.3,1.2,0.5,1.8,0.9c0.9,0.5,1.9,1.1,2.9,1.4
		c1.6,0.5,0.9,1.6,1.5,2c-0.3,0.2-0.7,0.4-1.1,0.7c-0.2,0.2-0.2,0.4-0.3,0.6c0,0.1-0.1,0.6-0.1,0.7c0,0.7,0.4,0.8,0.8,1.2
		c0.5,0.6,0.7,2.4,1.8,1.9l0,0c0.6-0.1,1.7-0.2,2.2-0.6c0,0,0.5,0.3,0.7,0.2c0.1,0.9,0.5,1.7,1,2.4c0.3,0.4,1.4,1.2,1.3,1.6
		c-0.1,0.4-0.9,0.4-1.1,1c-0.2,0.5,0,1.5-0.2,2c-0.1,0.2-0.3,0.3-0.4,0.6c-0.1,0.2,0.1,0.5,0.1,0.8c0,0.5-0.1,1.1-0.4,1.5l0,0
		c-0.2,0.4-0.6,0.8-0.9,1.1c-1.1,1.1-2,2.6-2.6,4c-0.6,1.3-0.6,2.8-1.1,4.1v-0.1c-0.7,0.9-1.1,2-1.5,3.1c-0.2,0.6-0.6,1.2-0.7,1.8
		c-0.1,0.5,0,1.1-0.1,1.7c-0.1,1.1-0.3,2.2,0.3,3.2c0.5,0.9,1.1,1.9,1.8,2.7c0.5,0.7,1,1.6,1.8,1.9l0.1,0.1c0.3,0.4,0.5,0.8,0.8,1.3
		c0.3,0.4,0.6,1,0.9,1.4c0.6,0.8,1.5,1.5,2.2,2.3c0.7,0.8,1.5,1.6,2.4,2.2c1.6,1.2,2.9,3.1,3.7,4.7h-0.1c0.4,0.5,0.3,1.5,0,2
		c-0.4,0.6-1.5,0.4-1.8,1c0.4,0,0.8-0.2,1.1-0.4c-0.2,0.5-0.9,0.7-1.4,0.9c-1.1,0.5-1.1,1.6-2.2,1.9c-1.2,0.3-2.3,0.5-3.3,1.2
		c-0.9,0.6-0.9,1.8-0.1,2.5c0.7,0.7,2.2,0.6,3.1,0.7c1.2,0.2,2.4,0.1,3.6-0.1c0.6-0.1,1.2-0.1,1.8-0.2c0.3,0,1.5-0.1,1.3,0.2h0.1
		c-0.5,1.9,1.9,2,3.1,2.3c1.4,0.4,3.6,0.4,4.7-0.7c0.5-0.6,0.6-1.3,0.9-1.9c0.3-0.6,0.8-1.1,0.9-1.8c0.2-0.9-0.2-1.1,0.7-2.3
		c0.6-0.8,0.8-1.3,1-2.2c0.3-1.2,0.8-3.1,0.7-3.9c-0.2-0.8-1-1.6-1.7-1.5c-0.8,0-2.1-0.3-2.8-0.1c-0.8,0.2-1.5-0.1-2.3-0.2
		c-0.3-0.1-0.4-0.3-0.6-0.3c-0.5,0-0.7,0.7-0.9,0.3c-0.7-1.2-2-3.1-2.3-3.9c-0.2-0.5-0.4-0.6-0.6-1.1c-0.1-0.3-0.2-0.5-0.2-0.5
		c0.3-1-0.8-4-1.3-4.9C36,83,35,81.8,34,80.8c-0.4-0.4-1-0.8-1.1-1.2c0.7-0.2,1.5-0.2,2.3-0.2c1,0,3.4-1,4.1-1.6
		c1.5-1.2,2.1-2,3.4-3.2c0.5-0.5,1.1-1,1.6-1.5s0.8-1,1.2-1.5h0.1c0-0.1,0.1-0.2,0.1-0.3c0.3-0.1,0.5-0.5,0.9-0.7
		c0.3-0.2,0,0.3,0.3,0c0.4-0.3,1.3-1.6,1.5-2c0.1-0.3,0-0.6,0.3-0.7c-0.1-0.3,0.2-0.5,0.6-1c0.2-0.6,0.9-0.9,1.2-1.5
		c0.2-0.5,0.4-1.1,0.6-1.7c0.5-2.4,1.2-4.7,0.1-7c-0.4-1-1-1.9-1.5-2.8c-0.3-0.4-0.5-0.8-0.8-1.1c-0.3-0.4-0.4-0.7-0.7-1.1l0.1,0.1
		c-0.1-0.1-0.1-0.2-0.2-0.4c0.7-0.3,1.4-0.4,2.1-0.5c1.5-0.3,1.1-2.3,1.4-2.6c0.4-0.4,0.9-2,0.9-3.1v-0.1c0.2-0.9,0.4-1.6,0.6-2.5
		C52.9,41.3,53.3,40.2,53.2,38.9z M25.5,41L25.5,41c-0.3-0.2-0.6-0.4-0.8-0.6c-0.1-0.2,0-0.4-0.1-0.5c-0.1-0.1-0.3-0.1-0.4-0.2
		c-0.4-0.4-1.2-2.1-1.2-2.4c0-0.5-0.4-1-0.4-1.3c0-0.6,0.6-0.8,0.8-0.1c0,0.1,0,0.3,0,0.4c0.1,0.1,0.2,0.1,0.2,0.1
		c0.1,0.2,0.2,0.4,0.4,0.6c0.3,0.4,0.6,0.8,1,1.2c0.5,0.5,0.5,0.6,0.6,1.3C25.5,39.9,25.6,40.5,25.5,41z"/>
</g>
</svg>
