<?xml version="1.0" encoding="utf-8"?>
<!-- Generator: Adobe Illustrator 15.0.0, SVG Export Plug-In . SVG Version: 6.00 Build 0)  -->
<!DOCTYPE svg PUBLIC "-//W3C//DTD SVG 1.1//EN" "http://www.w3.org/Graphics/SVG/1.1/DTD/svg11.dtd">
<svg version="1.1" id="Layer_1" xmlns="http://www.w3.org/2000/svg" xmlns:xlink="http://www.w3.org/1999/xlink" x="0px" y="0px"
	 width="66px" height="110px" viewBox="0 0.3 66 110" style="enable-background:new 0 0.3 66 110;" xml:space="preserve">
<style type="text/css">
<![CDATA[
	.st0{fill:#010101;}
]]>
</style>
<path class="st0" d="M29,87.2c-0.2-0.8,0.1-2.1-0.3-3.1c-0.4-0.9-1.2-1.6-1.6-2.5c-0.3-0.5-0.6-1-0.8-1.5c-0.2-0.6,0-0.7,0.2-1.3
	c0.4-1.2,0.6-2.6,1.3-3.7c1.6-2.4,2.9-4.4,4.1-7c0.2-0.5,0.5-1,0.7-1.5c0.1-0.2,0.1-0.6,0.5-0.8c0,0,0.2-0.4,0.1-0.5
	c0.4,0,1.2,1.7,1.6,2.4c0.6,1,1.2,2,2,2.8c0.6,0.5,0.8,0.9,1.4,1.5c0.4,0.4,1.3,0.8,1.7,1.1c0.9,0.8,2.2,1.5,3,2.4
	c0.7,0.8,0.8,1.5,1.5,2.3c0.6,0.7,1.9,1.5,1.7,2.7c0,0.1,0,0.3-0.1,0.3h0.1c0,2.5-0.3,5.8,1.9,7.7c1.1,0.9,1.4,2,2.1,3.2
	c0.6,0.9,1.2,1.9,1.5,3c0.3,1.2,0,1.5-0.7,2.3c-0.5,0.6-0.7,1-1.4,1.4h-0.1c-0.7,0.3-1,1.8-0.6,2.5c0.5,0.9,1.2,1.6,1.8,2.1
	c0.3,0.3,0.8,0.6,1.2,0.7c0.6,0.2,0.8,0.5,1.4,0.8c0.9,0.6,1.2,1.3,1.8,2.2c0.6,1,0.7,1.8,1.9,2.4c1.1,0.5,2.2,0.7,3.4,0.5
	c1.1-0.2,3.5-0.1,3.3-1.6c-0.1-1.2-0.7-2.1-1.5-2.9c-0.7-0.8-1.6-1.6-2-2.5c-0.2-0.4-0.3-1.1-0.5-1.6c-0.2-0.5-0.6-0.9,0.3-0.9
	c0.4,0,0.8,0.3,1.1,0.4c-0.2-0.5,0.4-0.4,0.7-0.6c-0.2-0.3-0.5,0.1-0.8-0.1c-0.2-0.1-0.1-0.6-0.3-0.8c-0.5-0.5-1.1-0.1-1.6-0.1
	c-0.8-1.6-0.7-0.5-1.3-1.1c-0.5-0.5-0.6-2.2-1.1-2.1v-0.1c-1.2-3.6-1-7.6-1.7-11.4c-0.3-1.7-1.2-2.9-2-4.4c-0.7-1.4-0.6-3.2-1.2-4.7
	c-0.1-0.3-0.1-3.3-0.1-4.1l0,0c0.4-1.5-0.4-3.6-0.7-5.1c-0.3-1.5-0.8-3.1-1.5-4.4c-0.4-0.8-1-1.5-1.5-2.2s-0.5-0.7-0.4-1.7
	c0.1-0.8-0.1-1.9-0.4-2.6c-0.3-0.9-1-1.2-1.4-1.6c-0.3-0.3-0.2-0.9-0.4-1.1c-0.4-0.7-0.8-1.1-1.5-1.7c-0.7-0.6-0.9-1.1-1.8-1.9
	c0-0.2,0.1-0.8-0.2-1h-0.1c0-0.5,0.2-1,0.3-1.5c0-0.6,0.3-1.1,0.3-1.6c0.1-1,0.3-2.1,0.4-3.1c0.1-1.3,0.3-2.2,1-3.3
	c0.7-1.1,1.1-2.4,1.9-3.4c0.8-1,1.8-2.1,2.3-3.2c0.5-1,0.8-2.2,0.9-3.3c0-0.2,0-0.3,0-0.4l0,0c0.6-0.6,2.3-0.3,3.1-0.4
	c1-0.1,2.2-0.3,3.2-0.8c1.9-1.1,3.7-2.5,5.4-3.9c0.8-0.6,1.7-1.1,2.4-1.8c1-0.9,0.4-1.6,0.3-2.8c0-0.6-0.3-2.1-0.6-2.8h-0.1
	c-0.8-1.9-1.5-3.9-2.6-5.7c-0.5-0.9-1.1-1.7-1.7-2.6c-0.6-0.8-1-1.7-1.6-2.5c-0.2-0.2-0.4-0.4-0.5-0.5L56,4
	c-0.3-0.8-2.1-0.8-2.8-0.9c-1.1-0.1-2.2,0-3.3,0c-1.7-0.1-1.7,0.2-2.1,1.5c-0.1,0.5-0.4,1-0.5,1.5c0,0.5,0.2,0.8,0.4,1.3
	s0.5,0.8,1,1c0.4,0.1,1.2,0,1.4,0.4c0.4,0,0.8-0.2,0.8-0.4c0-0.3,0.6,0,0.8-0.3c0.7,0.5,1.6,0.1,1.5-0.8c0,0,0.1,0,0.2-0.1
	c0.2,0.4,0.6,0.7,0.8,1.1c0.2,0.5,0.4,1,0.6,1.4c0.2,0.6,0.2,1.5,0.3,2.2c0.1,0.4,0.3,0.4,0.3,0.8c0.1,1.3-0.7,2.3-0.4,3.4
	c0.1,0.3,0.3,0.4,0.2,0.5c-0.1,0.1-0.6,0.3-1,0.1c-0.5-0.3-0.4-0.8-1.2-0.9c-1.3-0.2-3.7,0.3-4.1,1.7l-0.3-0.2
	c-0.1,0-3.6-1.4-5.2-0.6c-1,0.5-2.2,0.9-3.1,1.7c-0.6,0.5-2.1,1.3-2.7,0.8v-0.1c0.1,0,0.3-0.1,0.3-0.1c0.3-0.3,0.9-0.5,1.1-0.9
	c0.2-0.4,0.2-1.1,0.3-1.5c0.2-0.9,0.1-2.1-0.2-2.9c0.5-0.9,1.1-0.9,1.1-1.5c0-0.4-0.3-0.9-0.9-1.3c-0.1-0.5,0.3-0.6,0.2-1.2
	c-0.1-0.3-0.4-0.8-0.5-1.1c-0.3-0.7-0.6-1.5-0.9-2.2l0,0c-0.3-0.6,0.4-0.8-0.1-1.1c-0.3-0.2-0.5-1-0.7-1.3c-0.2-0.4-0.3-0.5-0.8-0.7
	s-1.4-0.4-1.8-0.1v0.1c-0.8-0.6-3.1-0.3-4,0.1c-0.2-0.2-0.4-0.2-0.6,0.1c-0.4-0.1-0.8-0.1-0.7,0.4c-0.7,0.2-1.4,0-2,0.4
	C27.1,4.5,27.2,5,27,5.4c-0.1,0.2-0.5,0.2-0.6,0.4c0.1,0.2,0,0.2,0,0.4c0.3,0.5-0.4,1.1-0.6,1.7c-0.2,0.8-0.2,1.7-0.2,2.4
	s-0.2,0.7,0,1.4c0.2,0.9,0.6,2.4,0.9,3.2c0.3,0.8,1.1,1.4,1.3,2.1c0.2,0.5,0.2,1.1-0.3,1.6c-1.3,1.3-2.6,0.6-3.7-0.4
	c-1.1-1-2.8-1.9-4.3-2c-0.8-0.1-1.6,0.3-2.3,0.3c-0.8,0-0.5-0.6-1-1.3c-0.9-1.3-2.9-1.9-4.3-1.3l-0.1-0.1c0.4-1.1,0.7-2,0.8-2.7
	c0.1-1.5,0.4-2,0.5-2.9c0.1-0.8,0.2-1.2,0.6-1.8c0.1-0.2,0.3-0.5,0.4-0.7c0.3-0.2,0.6,0,0.8-0.3C15,5.8,15.6,5.6,16,5.7
	c-0.3,0.7,1.2,0.9,1.7,0.6c0.6,1,1.9-0.6,2.3-1.1c0.7-0.9,0.4-2.3,0-3.2c-0.2-0.5-0.6-0.5-1.1-0.5c-0.4-0.1-1-0.2-1.4-0.3
	C17,1.1,16.9,1.1,16.4,1c-0.6-0.1-1.1-0.1-1.7-0.1c-1.3,0.1-1.8,0.6-2.6,1.5c-0.6,0.7-1.4,1.2-2,2C8.7,5.9,7,7.1,5.6,8.6
	C4.9,9.3,4,11.1,3.5,11.9c-0.5,0.9-0.3,1.1-0.7,2c-0.6,1.1-0.5,1.6,0.3,2.6c0.6,0.8,1.3,1.8,1.9,2.6c1.4,1.9,2.7,3.7,4.3,5.3
	c0.1,0.1,0.1,0.1,0.1,0.2l-0.2-0.2c0.6,0.6,1.4,1.2,2.3,1.4c0.5,0.1,1,0.2,1.5,0.3c0.3,0.1,1.4,0.2,1.6,0.4c0.4,0.3,0.1,0.8,0.2,1.3
	c0,0.5,0,1.1,0.2,1.5c0.6,1.3,1,2.3,1.8,3.4c0.8,1.1,1.5,2.3,2.4,3.3c0.8,1,1.7,2.5,2.2,3.4l0,0c0.2,1.1-0.1,2.2,0,3.3
	c0,1.1,0.1,2.2,0.3,3.3c0.1,1,0.5,2,0.5,3c0,0.1-0.1,0.4-0.1,0.5c0.2,0.5,0,0.6-0.3,1.1c-0.3,0.4-0.2,1.1-0.4,1.6
	c-0.2,0.5-0.7,1.1-0.8,1.6c0,0.4-0.9,0.5-1.3,0.8c-0.4,0.3-1,0.7-1,1.3c0,0.2,0.2,0.5,0.1,0.7s-0.5,0.3-0.4,0.5
	c0.2,0.5-0.5,1-0.8,2.5c-0.1,0.5,0.2,0.7,0.4,1.2h0.1c0.7,0.9-0.4,1.8-0.6,2.7c-0.3,1.1-0.4,2.2-0.5,3.3c-0.1,1.2-0.2,2.4-0.2,3.6
	c0.1,1.1,0.4,2.4,0.7,3.4c0.3,0.9,0.7,1.5,1.2,2.2l0,0c0.3,0.9-0.2,2,0,3c0.2,1,0.6,1.9,0.9,2.8c0.1,0.3,0.3,0.6,0.3,0.8l-0.1,0.1
	c0.1,1.1,0,2.1,0.4,3.1c0.3,1,0.5,1.9,1.1,2.7c1.5,2,2.4,3.6,3.4,5.7c0.2,0.5,0.5,1,0.7,1.5c0.2,0.4,0.6,0.8,0.7,1.2l0,0
	c0.2,0.2,0.2,0.4,0,0.5c-0.1-0.1-0.2-0.1-0.3-0.1c-0.2,0.3-0.5,0.9-0.4,1.3c-0.6,0.6-1.2,1.2-1.8,1.8c0.1-0.1,0.2-0.1,0.3-0.2
	c-0.1,0.2-0.3,0.3-0.4,0.5c-0.6,1.1-1.1,1.6-2.3,2.2c-1.1,0.5-1.8,1.4-1.7,2.6s0.7,1.6,1.9,1.9c1,0.3,2.3,0,3.3-0.2
	c0.9-0.2,2.3-0.5,3-1.2c0.9-0.8,1.2-1.5,2.6-1.3l0,0c1-0.4,2.5-0.3,3.3-1.2c0.7-0.8,0-2.1-0.2-2.9c-0.3-1.1-0.9-2.1-1.2-3.2
	c-0.2-0.6-0.1-0.9-0.8-1.1c-0.6-0.2-1.1,0.1-1.5-0.3c-0.7-0.6-0.6-2.5-0.7-3.3c-0.1-0.7-0.2-3.1-0.2-3.7
	C28.7,88.5,28.9,87.8,29,87.2"/>
</svg>
