<?xml version="1.0" encoding="utf-8"?>
<!-- Generator: Adobe Illustrator 15.0.0, SVG Export Plug-In . SVG Version: 6.00 Build 0)  -->
<!DOCTYPE svg PUBLIC "-//W3C//DTD SVG 1.1//EN" "http://www.w3.org/Graphics/SVG/1.1/DTD/svg11.dtd">
<svg version="1.1" id="Layer_1" xmlns="http://www.w3.org/2000/svg" xmlns:xlink="http://www.w3.org/1999/xlink" x="0px" y="0px"
	 width="66.023px" height="110.611px" viewBox="0 0 66.023 110.611" enable-background="new 0 0 66.023 110.611"
	 xml:space="preserve">
<path fill="#010101" d="M5.055,41.743c0,0-0.75,1.25-1.375,7.375s-1.125,5.375-0.75,9.125s2,10.125,3.875,14.625
	s2.375,4.375,2.25,6.75s1.25,9.5,4,14.125s3.125,6.125,1.5,7.75s-3.875,3.584-3.5,6.375s5.444,3.875,7.534,1.375
	c2.091-2.5,3.216-2.5,4.341-2.75c0,0,1-2.75-0.125-7.375s-2.5-6.125-3.125-9.625s-0.625-6-3-11.125c0,0-0.5-2.25,0.75-4.5
	s3.25-11.25,3.75-15.5c0,0,7.125,6.75,17,11.25c0,0-0.5,7.875,1.125,11s3.5,3.625,3.625,6.375s1.5,6.5,0,8.75s-2,3.25-1.125,4.625
	s14.875,8,14.875,8l5-0.125c0,0,0.5-1.5-0.625-1.625s-5.5-4.875-6.125-6.5s-1.875-9.5-1.75-10s-2.75-0.875-2.75-0.875
	s0.375-10.25-1.25-14.25s-1.375-6.125-1.375-7.5s-2.25-3-2-5.75s-1.125-7.5-4.375-11s-10.535-9.75-10.535-9.75s1.785-6.25,2.91-6.75
	s5.25-1.25,6.75-1.875c0,0,4.5,5,7.5,6.875s11.097,2.375,13.735-0.875c2.64-3.25,2.548-8.625,3.39-12.125
	c0.841-3.5,1.375-5.5,0-7.375s-1.375-1.875-1.375-1.875s-4.375-3-6.25-1.625s-1.875,3.5,0.375,4.75s2.75,2.375,2.75,2.375
	s-2.375,2.875-3.75,5.75c0,0-2-3-5.75-3c0,0-2.5-5.125-5.375-4.875l0.75-1.875l3.125-0.375c0,0,1.375-2.5,3-3.875s3.625-5.625,3.5-7
	s-1.875-5.5-8.75-7s-8.25,4.375-10.25,6c-0.4,0.325-6.375-3.875-11.75-3.875c0,0-3.25-2.125-7-0.75s-4,2-7.125,3.125
	s-6.375,5.875-8.125,7s-2.75,2.25-3.125,7.625s1.25,14.125,1.75,16.625S2.18,40.743,5.055,41.743z M6.242,24.555
	c2.75-1.063,3.438-4.813,4.056-5.625c0.618-0.813,1.758-0.563,2.008-0.375c0.25,0.187,0,1.875,0,1.875l-2.563,5.125L8.181,35.743
	c-0.188-1.313-1.5-0.688-1.938-2.688C5.805,31.055,6.243,24.555,6.242,24.555z"/>
</svg>
