<?xml version="1.0" encoding="utf-8"?>
<!-- Generator: Adobe Illustrator 16.0.0, SVG Export Plug-In . SVG Version: 6.00 Build 0)  -->
<!DOCTYPE svg PUBLIC "-//W3C//DTD SVG 1.1//EN" "http://www.w3.org/Graphics/SVG/1.1/DTD/svg11.dtd">
<svg version="1.1" id="Layer_1" xmlns="http://www.w3.org/2000/svg" xmlns:xlink="http://www.w3.org/1999/xlink" x="0px" y="0px"
	 width="72.919px" height="124.636px" viewBox="0 0 72.919 124.636" enable-background="new 0 0 72.919 124.636"
	 xml:space="preserve">
<path d="M71.987,19.541c-0.86-1.494-2.045-2.797-2.994-4.25c-1.158-1.773-2.017-3.314-3.663-4.725
	c-1.524-1.307-3.222-2.331-4.59-3.781c-1.411-1.496-2.449-1.868-4.531-1.966C56.037,4.81,55.75,4.81,55.404,4.823
	c-1.683-0.127-3.788,0.104-4.42,1.492c-0.426,0.938,0.187,2.231,0.51,2.972c0.428,0.981,0.484,1.865,1.712,1.625
	c1.674-0.327,3.856-2.809,5.413-1.125c0.604,0.654,0.896,1.868,1.373,2.622c0.459,0.727,1.167,1.389,1.437,2.215
	c0.571,1.745-0.52,1.327-1.719,1.312c-1.016-0.012-2.232,0.006-3.152,0.354c-0.431,0.163-0.681,0.462-1.004,0.622
	c-0.64,0.316-0.085,0.36-0.872,0.309c-0.954-0.062-1.652-0.655-2.715-0.656c-1.044-0.001-2.297,0.106-3.256,0.503
	c-1.07,0.442-1.858,1.576-2.875,1.975c-1.195,0.469-1.993-0.399-2.878-1.096c-0.796-0.626-1.441-0.938-2.187-1.062
	c0.009-0.308,0.003-0.619,0.019-0.942c0.035-0.71-0.036-2.518,0.358-3.062c0.341-0.471,0.957-0.25,1.314-0.52
	c0.445-0.334,0.332-0.829,0.332-1.423c0-0.491,0.1-1.1,0-1.579c-0.127-0.609-0.415-0.656-0.583-1.167
	c-0.191-0.579,0.039-1.455-0.019-2.064c-0.057-0.61-0.241-1.32-0.502-1.917c-0.59-1.35-1.511-2.613-2.831-3.329
	c-2.653-1.439-5.965-1.138-8.171,1.037c-1.107,1.091-1.731,2.412-1.727,3.955c0.002,0.731,0.241,1.605,0.106,2.253
	c-0.142,0.68-0.431,1.121-0.439,1.898c-0.017,1.545-0.092,2.437,1.081,3.419c0.953,0.797,1.063,2.035,1.082,3.292
	c-0.334,0.104-0.652,0.221-0.926,0.365c-0.752,0.396-1.255,0.884-2.028,1.208c-0.853,0.357-1.589,0.803-2.369,1.244
	c-1.962-2.193-6.81-2.842-9.131-0.85c-0.764-0.64-1.462-1.742-2.344-2.168c-1.132-0.547-2.58-0.106-3.64,0.259
	c0.086-0.103,0.32-0.323,0.359-0.472c0.276-1.049,0.893-1.925,1.097-3.012c0.187-0.992-0.093-2.146,0.15-3.122
	c0.658-2.643,2.646-0.749,4.253-0.247c2.062,0.643,4.693,0.092,4.5-2.5c-0.193-2.592-1.586-3.436-3.875-3.993
	C12.059,2.288,9.74,5.728,6.587,8.562c-1.335,1.201-2.599,2.493-3.844,3.781c-0.694,0.717-2.031,1.858-2.262,2.85
	c-0.216,0.928-0.035,1.921-0.271,2.869c-0.543,2.172-0.052,3.363,1.747,4.662c1.684,1.216,3.375,2.51,4.757,4.066
	c1.561,1.758,2.717,3.418,5.149,3.68c1.622,0.175,3.501,0.057,5.198,0.332c0.004,1.571,1.733,3.452,2.521,4.517
	c1.349,1.824,3.24,3.199,4.035,5.375c1.513,4.141,0.624,9.839-1.724,13.509c-2.669,4.174-4.339,8.8-5.061,13.741
	c-0.364,2.495-1.279,5.065-1.121,7.618c0.131,2.124,0.909,4.092,1.125,6.257c0.203,2.039,0.749,3.815,1.278,5.722
	c0.592,2.133,0.097,3.825-0.555,5.903c-1.368,4.363,0.459,8.35,0.896,12.5c0.055,0.527,0.191,1.088-0.022,1.625
	c-0.19,0.479-0.819,0.831-0.946,1.278c-0.279,0.983,0.527,1.811,0.755,2.722c0.533,2.126-1.167,4.338-2.378,5.878
	c-1.157,1.472-3.413,4.021-2.434,6.027c0.96,1.967,4.06,1.002,5.528,0.25c1.627-0.833,3.386-1.987,4.881-3.031
	c0.897-0.626,2.062-1.591,2.375-2.618c0.547-1.793,0.494-4.365,0.497-6.256c0.003-2.228-1.133-3.665-1.25-5.875
	c-0.129-2.449,1.443-3.662,2.028-5.869c0.646-2.437-0.539-4.38-0.653-6.756c-0.119-2.469,0.125-4.292,1.628-6.25
	c1.521-1.982,2.713-4.052,3.344-6.506c0.511-1.988,0.989-5.544,2.6-7.058c0.535,2.338,1.107,4.624,2.022,6.94
	c1.005,2.545,2.379,4.597,3.565,6.972c0.763,1.527,1.206,4.279,0.622,5.906c-0.82,2.287-1.312,3.924-1.025,6.503
	c0.225,2.021,1.324,3.753,1.618,5.744c0.36,2.432-0.615,3.931-1.28,5.997c-0.537,1.666-0.708,4.671-0.097,6.381
	c0.768,2.149,4.172,3.774,6.122,4.9c1.795,1.037,5.09,2.427,7.034,1.253c1.949-1.177-0.049-3.43-1.024-4.662
	c-1.327-1.677-2.809-3.184-3.66-5.216c-0.889-2.125-0.719-4.466-0.719-6.809c0-1.157,0.002-2.313,0-3.469
	c-0.003-1.585,0.518-2.71,0.975-4.201c0.685-2.232,1.029-5.014,0.312-7.297c-0.748-2.382-1.152-4.194-0.413-6.627
	c0.642-2.111,1.512-4.285,1.753-6.506c0.552-5.087,1.458-10.386,0.24-15.494c-0.478-2.002-1.223-4.162-2.083-6.028
	c-0.277-0.6-0.618-1.045-1.005-1.367c-0.267-0.579-0.533-1.167-0.752-1.758c-0.46-1.244-0.584-2.62-0.964-3.934
	c0.221-0.931,0.846-1.75,1.162-2.663c0.371-1.072,0.252-2.176,0.15-3.251c-0.165-1.741-1.158-4.801,0.243-5.999
	c1.485-1.271,3.23-2.045,4.601-3.531c1.797-1.95,1.798-3.333,1.925-5.825c1.831-0.189,3.77,0.891,5.731,0.731
	c1.874-0.152,3.265-0.648,4.875-1.597c1.47-0.866,4.155-2.077,5.823-3.671c0.575-0.351,1.11-0.741,1.43-0.95
	C73.559,22.686,73.033,21.356,71.987,19.541z"/>
</svg>
