<?xml version="1.0" encoding="utf-8"?>
<!-- Generator: Adobe Illustrator 16.0.0, SVG Export Plug-In . SVG Version: 6.00 Build 0)  -->
<!DOCTYPE svg PUBLIC "-//W3C//DTD SVG 1.1//EN" "http://www.w3.org/Graphics/SVG/1.1/DTD/svg11.dtd">
<svg version="1.1" id="Layer_1" xmlns="http://www.w3.org/2000/svg" xmlns:xlink="http://www.w3.org/1999/xlink" x="0px" y="0px"
	 width="62.8px" height="14px" viewBox="0 0 62.8 14" style="enable-background:new 0 0 62.8 14;" xml:space="preserve">
<style type="text/css">
<![CDATA[
	.st0{fill:#F7D82D;}
]]>
</style>
<g id="Layer_2">
	<g>
		<path class="st0" d="M62.3,0.6C62,0.2,61.5,0,61,0h-6.2c-0.6,0-1,0.2-1.3,0.6c-0.3,0.3-0.5,0.8-0.5,1.3V14h4.2V9.8h1.4V14h4.2V3
			V1.9C62.8,1.4,62.6,0.9,62.3,0.6z M58.7,7.3h-1.4V3.8h1.4V7.3z"/>
		<path class="st0" d="M14.7,1.9c0-0.5-0.2-1-0.5-1.4C13.8,0.2,13.3,0,12.8,0H9.9H4.1H1.6C1.1,0,0.7,0.2,0.4,0.6
			C0.1,0.9,0,1.4,0,1.9V3V14h4.2V3.8h1V14h4.2V3.8h1V14h4.2V3l0,0V1.9z"/>
		<path class="st0" d="M41.2,1.9c0-0.5-0.2-1-0.6-1.4C40.3,0.2,39.8,0,39.3,0h-2.8h-5.8h-2.5c-0.6,0-0.9,0.2-1.2,0.6
			c-0.3,0.3-0.4,0.8-0.4,1.4V3V14h3.8V3.8h1.4V14H36V3.8h1V14h4.2V3l0,0L41.2,1.9L41.2,1.9z"/>
	</g>
</g>
</svg>
