<?xml version="1.0" encoding="utf-8"?>
<!-- Generator: Adobe Illustrator 16.0.0, SVG Export Plug-In . SVG Version: 6.00 Build 0)  -->
<!DOCTYPE svg PUBLIC "-//W3C//DTD SVG 1.1//EN" "http://www.w3.org/Graphics/SVG/1.1/DTD/svg11.dtd">
<svg version="1.1" id="Layer_1" xmlns="http://www.w3.org/2000/svg" xmlns:xlink="http://www.w3.org/1999/xlink" x="0px" y="0px"
	 width="52px" height="14px" viewBox="0 0 52 14" style="enable-background:new 0 0 52 14;" xml:space="preserve">
<style type="text/css">
<![CDATA[
	.st0{fill:#F7D82D;}
]]>
</style>
<g id="Layer_2">
	<g>
		<polygon class="st0" points="43.3,0 43.3,3.1 45.7,3.1 45.7,14 49.9,14 49.9,11.8 49.9,8.4 49.9,5.9 49.9,3.1 52,3.1 52,0 		"/>
		<path class="st0" d="M0.4,0.5C0.1,0.8,0,1.3,0,1.9v10.7c0,0.6,0.1,0.8,0.4,1.1C0.7,14,1,14,1.6,14h6.1v-3.1H3.8V3.1h3.8V0H1.6
			C1,0,0.7,0.2,0.4,0.5z"/>
		<path class="st0" d="M22.4,0.5C22.1,0.8,22,1.3,22,1.9v2.4v0V14h-0.1h3.3h0.6V7.7h3.8V4.5h-3.8V3.1h3.8V0h-6.1
			C23.1,0,22.7,0.2,22.4,0.5z"/>
	</g>
</g>
</svg>
