<?xml version="1.0" encoding="utf-8"?>
<!-- Generator: Adobe Illustrator 16.0.0, SVG Export Plug-In . SVG Version: 6.00 Build 0)  -->
<!DOCTYPE svg PUBLIC "-//W3C//DTD SVG 1.1//EN" "http://www.w3.org/Graphics/SVG/1.1/DTD/svg11.dtd">
<svg version="1.1" id="Layer_1" xmlns="http://www.w3.org/2000/svg" xmlns:xlink="http://www.w3.org/1999/xlink" x="0px" y="0px"
	 width="56.3px" height="14.2px" viewBox="0 0 56.3 14.2" style="enable-background:new 0 0 56.3 14.2;" xml:space="preserve">
<style type="text/css">
<![CDATA[
	.st0{fill:#F7D82D;}
]]>
</style>
<g id="Layer_2">
	<g>
		<g>
			<path class="st0" d="M8.9,13.7c0.3-0.3,0.5-0.8,0.5-1.3V8.1c0-0.2-0.1-0.5-0.3-0.7C9,7.2,8.7,7,8.3,6.9c0,0,0,0-0.1,0v0
				c0,0,0,0,0.1,0C8.7,6.8,9,6.7,9.1,6.5C9.3,6.2,9.4,6,9.4,5.7v-4c0-0.5-0.2-0.9-0.5-1.3C8.6,0.2,8.2,0,7.6,0H0v14.2h7.6
				C8.2,14.2,8.6,14,8.9,13.7z M5.3,11.7H4.1V8.3h1.2V11.7z M5.3,5.8H4.1V2.3h1.2V5.8z"/>
			<path class="st0" d="M56,6.5c0.2-0.3,0.3-0.5,0.3-0.7v-4c0-0.5-0.2-0.9-0.5-1.3C55.5,0.2,55.1,0,54.5,0h-7.6v14.2h7.6
				c0.6,0,1-0.2,1.3-0.5c0.3-0.3,0.5-0.8,0.5-1.3V8.1c0-0.2-0.1-0.5-0.3-0.7c-0.1-0.2-0.4-0.4-0.8-0.5c0,0,0,0-0.1,0v0
				c0,0,0,0,0.1,0C55.6,6.8,55.9,6.7,56,6.5z M52.2,11.7H51V8.3h1.2V11.7z M52.2,5.8H51V2.3h1.2V5.8z"/>
			<path class="st0" d="M23.5,0v14.2H31c0.6,0,1-0.2,1.3-0.5c0.3-0.3,0.5-0.8,0.5-1.3V1.8c0-0.5-0.2-0.9-0.5-1.3C32,0.2,31.6,0,31,0
				L23.5,0L23.5,0z M28.7,12.1h-1.2v-10h1.2V12.1z"/>
		</g>
	</g>
</g>
</svg>
