<?xml version="1.0" encoding="utf-8"?>
<!-- Generator: Adobe Illustrator 16.0.0, SVG Export Plug-In . SVG Version: 6.00 Build 0)  -->
<!DOCTYPE svg PUBLIC "-//W3C//DTD SVG 1.1//EN" "http://www.w3.org/Graphics/SVG/1.1/DTD/svg11.dtd">
<svg version="1.1" xmlns="http://www.w3.org/2000/svg" xmlns:xlink="http://www.w3.org/1999/xlink" x="0px" y="0px"
	 width="61.299px" height="56.857px" viewBox="4.057 4.049 61.299 56.857" enable-background="new 4.057 4.049 61.299 56.857"
	 xml:space="preserve">
<g id="Layer_1">
	<g>
		<g>
			<path fill="#222220" d="M36.456,56.782c0,0,0.903-2.144,2.417-2.914c1.775-0.902,3.321-1.018,3.963-1.717
				C42.836,52.151,42.078,57.685,36.456,56.782z"/>
			<path fill="#222220" d="M42.836,55.937c0,0,0.523-2.621,1.862-3.786c1.342-1.166,3.205-2.769,3.495-3.555
				C48.194,48.596,48.342,55.209,42.836,55.937z"/>
			<path fill="#222220" d="M35.522,57.539c0,0,4.982-0.582,10.43,3.292C45.952,60.831,38.553,61.706,35.522,57.539z"/>
			<path fill="#222220" d="M42.312,56.881c0,0,4.484-2.255,10.925,0.134C53.237,57.016,46.243,60.652,42.312,56.881z"/>
			<path fill="#222220" d="M48.748,53.868c0,0,3.062-3.583,10.49-2.971C59.238,50.897,53.995,56.257,48.748,53.868z"/>
			<path fill="#222220" d="M49.448,52.654c0,0-0.493-1.612,0-3.185c0.497-1.575,2.826-4.749,3.06-5.827
				C52.508,43.643,53.823,50.125,49.448,52.654z"/>
			<path fill="#222220" d="M54.256,48.946c0,0,1.545-4.256,9.324-5.712c0,0-0.816,0.644-1.457,1.574
				C61.481,45.741,57.899,49.585,54.256,48.946z"/>
			<path fill="#222220" d="M54.576,47.401c0,0-0.99-1.777-0.757-3.467c0.233-1.69,1.369-5.799,1.282-6.292
				C55.101,37.64,58.043,44.109,54.576,47.401z"/>
			<path fill="#222220" d="M58.334,42.521c0,0,0.206-2.579,2.188-4.589c1.979-2.01,4.077-2.389,4.835-2.972
				C65.355,34.96,63.084,41.953,58.334,42.521z"/>
			<path fill="#222220" d="M58.131,40.905c0,0-1.545-1.37-1.865-3.525s-0.057-5.361-0.291-6.002
				C55.974,31.376,60.754,36.621,58.131,40.905z"/>
			<path fill="#222220" d="M60.259,35.193c-0.09,0.028-0.525-5.214,4.631-8.448C64.889,26.745,65.065,33.708,60.259,35.193z"/>
			<path fill="#222220" d="M59.5,33.853c0,0,1.603-4.777-4.049-8.333c0,0,0.698,1.429,1.02,2.915
				C56.789,29.92,57.462,32.222,59.5,33.853z"/>
			<path fill="#222220" d="M60.376,27.881c0,0-2.116-2.885,2.176-8.857c0,0-0.009,2.273,0,3.701
				C62.559,24.152,62.734,26.978,60.376,27.881z"/>
			<path fill="#222220" d="M59.355,26.745c0,0,0.232-4.516-6.235-6.847c0,0,1.347,1.276,2.097,2.71
				C56.238,24.56,58.277,26.599,59.355,26.745z"/>
			<path fill="#222220" d="M58.859,21.239c0,0-3.146-2.622-0.319-8.536c0,0,0.468,1.981,0.816,2.768
				C59.704,16.257,60.723,19.024,58.859,21.239z"/>
			<path fill="#222220" d="M57.581,20.392c0,0-0.646-4.165-7.55-4.921c0,0,2.039,1.603,2.768,2.461
				C53.526,18.792,56.474,20.218,57.581,20.392z"/>
			<path fill="#222220" d="M55.713,15.645c0,0-3.991-2.826-2.826-8.013c0,0,1.05,1.107,1.777,2.128
				C55.393,10.779,56.674,13.342,55.713,15.645z"/>
			<path fill="#222220" d="M54.197,14.916c0,0-1.398-3.409-8.333-2.506c0,0,1.808,0.7,3.032,1.341
				C50.119,14.392,52.358,15.503,54.197,14.916z"/>
			<path fill="#222220" d="M51.021,11.012c0,0,0.729-4.079-4.427-6.061C46.594,4.952,47.469,9.849,51.021,11.012z"/>
			<path fill="#222220" d="M49.537,10.808c0,0-2.796-2.855-8.478,0c0,0,0.581-0.173,2.067,0
				C44.612,10.983,47.555,12.12,49.537,10.808z"/>
			<path fill="#222220" d="M45.719,8.158c0,0-3.438,0.319-5.798-4.108c0,0,1.164,0.378,1.923,0.554S45.778,5.214,45.719,8.158z"/>
		</g>
		<g>
			<path fill="#222220" d="M32.959,56.782c0,0-0.904-2.144-2.418-2.914c-1.778-0.902-3.32-1.018-3.961-1.717
				C26.579,52.151,27.336,57.685,32.959,56.782z"/>
			<path fill="#222220" d="M26.579,55.937c0,0-0.524-2.621-1.864-3.786c-1.34-1.166-3.205-2.769-3.496-3.555
				C21.218,48.596,21.073,55.209,26.579,55.937z"/>
			<path fill="#222220" d="M33.89,57.539c0,0-4.981-0.582-10.429,3.292C23.462,60.831,30.862,61.706,33.89,57.539z"/>
			<path fill="#222220" d="M27.103,56.881c0,0-4.487-2.255-10.927,0.134C16.176,57.016,23.17,60.652,27.103,56.881z"/>
			<path fill="#222220" d="M20.663,53.868c0,0-3.06-3.583-10.486-2.971C10.177,50.897,15.421,56.257,20.663,53.868z"/>
			<path fill="#222220" d="M19.964,52.654c0,0,0.496-1.612,0-3.185c-0.495-1.575-2.826-4.749-3.06-5.827
				C16.904,43.643,15.59,50.125,19.964,52.654z"/>
			<path fill="#222220" d="M15.157,48.946c0,0-1.542-4.256-9.322-5.712c0,0,0.816,0.644,1.456,1.574
				C7.932,45.741,11.516,49.585,15.157,48.946z"/>
			<path fill="#222220" d="M14.837,47.401c0,0,0.991-1.777,0.758-3.467c-0.233-1.69-1.371-5.799-1.281-6.292
				C14.313,37.64,11.37,44.109,14.837,47.401z"/>
			<path fill="#222220" d="M11.078,42.521c0,0-0.204-2.579-2.184-4.589s-4.08-2.389-4.837-2.972
				C4.059,34.96,6.329,41.953,11.078,42.521z"/>
			<path fill="#222220" d="M11.284,40.905c0,0,1.542-1.37,1.864-3.525c0.32-2.156,0.058-5.361,0.292-6.002
				C13.439,31.376,8.659,36.621,11.284,40.905z"/>
			<path fill="#222220" d="M9.156,35.193c0.087,0.028,0.524-5.214-4.632-8.448C4.524,26.745,4.349,33.708,9.156,35.193z"/>
			<path fill="#222220" d="M9.912,33.853c0,0-1.601-4.777,4.051-8.333c0,0-0.699,1.429-1.018,2.915
				C12.624,29.92,11.954,32.222,9.912,33.853z"/>
			<path fill="#222220" d="M9.04,27.881c0,0,2.116-2.885-2.177-8.857c0,0,0.01,2.273,0,3.701C6.854,24.152,6.681,26.978,9.04,27.881
				z"/>
			<path fill="#222220" d="M10.058,26.745c0,0-0.233-4.516,6.235-6.847c0,0-1.347,1.276-2.097,2.71
				C13.177,24.56,11.137,26.599,10.058,26.745z"/>
			<path fill="#222220" d="M10.554,21.239c0,0,3.146-2.622,0.319-8.536c0,0-0.467,1.981-0.817,2.768
				C9.71,16.257,8.689,19.024,10.554,21.239z"/>
			<path fill="#222220" d="M11.834,20.392c0,0,0.644-4.165,7.548-4.921c0,0-2.039,1.603-2.768,2.461
				C15.886,18.792,12.937,20.218,11.834,20.392z"/>
			<path fill="#222220" d="M13.7,15.645c0,0,3.993-2.826,2.826-8.013c0,0-1.049,1.107-1.776,2.128
				C14.022,10.779,12.74,13.342,13.7,15.645z"/>
			<path fill="#222220" d="M15.215,14.916c0,0,1.399-3.409,8.333-2.506c0,0-1.807,0.7-3.03,1.341
				C19.295,14.393,17.052,15.503,15.215,14.916z"/>
			<path fill="#222220" d="M18.391,11.012c0,0-0.728-4.079,4.429-6.061C22.82,4.952,21.947,9.849,18.391,11.012z"/>
			<path fill="#222220" d="M19.877,10.808c0,0,2.796-2.855,8.478,0c0,0-0.583-0.173-2.068,0
				C24.801,10.983,21.86,12.12,19.877,10.808z"/>
			<path fill="#222220" d="M23.693,8.158c0,0,3.44,0.319,5.799-4.108c0,0-1.166,0.378-1.922,0.554
				C26.811,4.778,23.635,5.214,23.693,8.158z"/>
		</g>
	</g>
	<path fill="#A9A9A9" d="M48.776,25.886c-0.281-1.578-1.02-2.707-2.191-3.356c-0.964-0.533-2.064-0.628-3.029-0.557
		c0-1.234,0-2.075,0-2.075h-8.598h-0.211h-8.598c0,0,0,0.841,0,2.075c-0.965-0.071-2.065,0.024-3.029,0.557
		c-1.172,0.649-1.91,1.779-2.191,3.356c-0.843,4.719,1.244,7.959,6.193,9.652c1.144,2.515,3.254,5.264,6.127,6.148
		c0,0,0.9,2.5-0.35,3.688c0,0-2.062,0.312-1.875,2.438h3.723h0.211h3.723c0.188-2.125-1.875-2.438-1.875-2.438
		c-1.25-1.188-0.35-3.688-0.35-3.688c2.873-0.885,4.983-3.634,6.127-6.148C47.532,33.845,49.619,30.605,48.776,25.886z
		 M22.897,26.238c0.173-0.969,0.563-1.61,1.191-1.958c0.615-0.34,1.376-0.372,2.061-0.301c0,2.912,0,6.551,0,7.959
		c0,0.316,0.043,0.688,0.125,1.096C23.414,31.617,22.33,29.414,22.897,26.238z M43.429,33.033c0.083-0.408,0.126-0.779,0.126-1.096
		c0-1.408,0-5.047,0-7.959c0.685-0.07,1.446-0.039,2.061,0.301c0.628,0.349,1.019,0.989,1.191,1.958
		C47.375,29.414,46.29,31.617,43.429,33.033z"/>
</g>
<g id="Layer_2">
</g>
</svg>
