<?xml version="1.0" encoding="utf-8"?>
<!-- Generator: Adobe Illustrator 16.0.0, SVG Export Plug-In . SVG Version: 6.00 Build 0)  -->
<!DOCTYPE svg PUBLIC "-//W3C//DTD SVG 1.1//EN" "http://www.w3.org/Graphics/SVG/1.1/DTD/svg11.dtd">
<svg version="1.1" id="Layer_1" xmlns="http://www.w3.org/2000/svg" xmlns:xlink="http://www.w3.org/1999/xlink" x="0px" y="0px"
	 width="29px" height="27px" viewBox="0 0 29 27" enable-background="new 0 0 29 27" xml:space="preserve">
<path fill="#222222" d="M5.024,17.186c0.001-0.01,0.002-0.02,0.002-0.027c0-4.072,4.395-6.636,6.374-8.916
	c2.259-2.602,0.44-7.426,0.44-7.426s12.161,2.516,12.157,15.562c0.01,0.166,0,0.336,0,0.506c0,3.607-2.062,6.979-5.086,8.695
	c0.434-0.672,0.688-1.459,0.688-2.305c0-2.449-2.098-4.436-4.686-4.436c-2.587,0-4.686,1.986-4.686,4.436
	c0,1.113,0.438,2.129,1.152,2.908c-3.714-1.41-6.382-4.201-6.382-8.301C4.996,17.645,5.008,17.414,5.024,17.186z"/>
</svg>
