<?xml version="1.0" encoding="utf-8"?>
<!-- Generator: Adobe Illustrator 16.0.0, SVG Export Plug-In . SVG Version: 6.00 Build 0)  -->
<!DOCTYPE svg PUBLIC "-//W3C//DTD SVG 1.1//EN" "http://www.w3.org/Graphics/SVG/1.1/DTD/svg11.dtd">
<svg version="1.1" id="Layer_1" xmlns="http://www.w3.org/2000/svg" xmlns:xlink="http://www.w3.org/1999/xlink" x="0px" y="0px"
	 width="29px" height="27px" viewBox="0 0 29 27" enable-background="new 0 0 29 27" xml:space="preserve">
<path fill="#222222" d="M18.178,24.615c-0.229,0.51-0.609,0.515-0.85,0.008l-4.157-8.854c-0.237-0.506-0.245-1.338-0.016-1.849
	l4.938-11.016c0.23-0.511,0.863-0.929,1.41-0.929h7.828c0.547,0,0.807,0.418,0.578,0.929L18.178,24.615z M8.113,16.024
	c-0.229,0.511-0.611,0.515-0.849,0.009L1.094,2.897C0.858,2.391,1.111,1.977,1.656,1.977h11.759c0.547,0,0.807,0.418,0.578,0.929
	L8.113,16.024z"/>
</svg>
