<?xml version="1.0" encoding="utf-8"?>
<!-- Generator: Adobe Illustrator 16.0.0, SVG Export Plug-In . SVG Version: 6.00 Build 0)  -->
<!DOCTYPE svg PUBLIC "-//W3C//DTD SVG 1.1//EN" "http://www.w3.org/Graphics/SVG/1.1/DTD/svg11.dtd">
<svg version="1.1" id="Layer_1" xmlns="http://www.w3.org/2000/svg" xmlns:xlink="http://www.w3.org/1999/xlink" x="0px" y="0px"
	 width="95.547px" height="26px" viewBox="0 0 95.547 26" enable-background="new 0 0 95.547 26" xml:space="preserve">
<g>
	<g>
		<path fill="#FFFFFF" d="M24.271,5.193c-0.685-0.232-0.967-0.191-0.967-0.191s-0.898,0.041-2.346,1.416
			c-1.449,1.377-2,3.314-2.021,4.168c0,0-0.008,0.676,0.297,1.305c0.367,0.848,1.393,1.555,2.035,1.611c0,0,0.265,0.021,0.265-0.256
			c0.021-0.205-0.147-0.35-0.147-0.35s-0.654-0.754-0.626-2.211c0.057-0.973,0.269-2.979,1.978-4.404
			c0.178-0.061,0.143,0.137,0.143,0.137l-0.043,10.854c0,0,0.035,1.863-0.402,2.938c0,0-0.148,0.412-0.127,0.57
			c0.021,0.156,0.112,0.17,0.232,0.17c0.049,0,0.445-0.049,0.939-0.438c0.869-0.754,1.593-1.838,1.506-4.656V5.781
			C24.986,5.781,24.957,5.426,24.271,5.193z M95.256,15.746c0,0-0.252,0.012-0.33,0.258c-0.08,0.246-0.213,0.869-0.318,1.154
			S94.25,18.039,93.773,18c-0.479-0.039-1.285-0.453-0.902-6.789c0,0,0.174-0.74-1.111-1.168c0,0-1.072-0.479-1.443,0.195
			s-1.299,3.266-1.502,4.844c0,0-0.002,0.041-0.018,0.055c-0.018,0.018-0.053,0.004-0.057-0.035c0,0-0.219-2.453-0.189-3.959
			c-0.02-0.914-1.043-1.176-1.043-1.176s-0.943-0.316-1.23,0.164c-0.338,0.564-0.695,1.41-1.441,3.625V10.49
			c0,0,0.139-0.369-0.863-0.514l-0.715-0.107c0,0-0.309,0.02-0.359,0.35l-0.02,5.773l0.004,0.293
			c-0.311,0.797-0.814,1.773-1.41,1.791c-0.619,0.047-0.828-0.646-0.945-1.82c-0.092-2.021,0.07-5.439,0.07-5.439
			c0.023-0.266-0.277-0.6-1.152-0.732c-0.877-0.133-0.83,0.4-0.83,0.4l-0.023,0.443c-0.668-1.221-1.936-1.176-1.936-1.176
			c-2.082,0-2.988,2.299-3.203,4.262c-0.162,1.49,0.162,2.775,0.162,2.775s-0.277,1.109-1.082,1.287
			c-0.807,0.178-1.084-1.332-1.176-2.332c-0.092-0.998,0.484-3.463,0.484-3.463s0.184-0.311,0.137-0.709
			c-0.068-1.111-1.059-1-1.797-0.822c-0.736,0.178-1.59,0.289-1.59,0.289c0.162-0.6,0.115-1.465-0.898-1.465
			s-1.359,0.799-1.406,1.465c-0.045,0.666,0.6,1.131,0.6,1.131c-0.461,2.332-2.305,4.729-2.305,4.729s0.07-5.852,0.07-6.184
			c0-0.334-0.115-0.422-0.484-0.557c-0.369-0.133-0.715-0.178-0.715-0.178c-0.83-0.154-0.76,0.4-0.76,0.4l-0.023,0.422
			c-0.715-1.266-2.281-1.154-2.281-1.154s-3.539,0.76-2.762,7.023c-0.23,0.604-0.611,1.312-1.146,1.389
			c-0.621,0.047-0.83-0.652-0.947-1.834c-0.094-2.037,0.068-5.48,0.068-5.48c0.023-0.27-0.277-0.604-1.156-0.738
			s-0.834,0.402-0.834,0.402l-0.023,0.447c-0.67-1.23-1.943-1.186-1.943-1.186c-2.09,0-3,2.316-3.216,4.295
			c-0.056,0.516-0.064,0.977-0.052,1.359l-0.013,0.02c0,0-0.673,2.461-1.808,2.408c-0.812,0.014-0.855-1.973-0.855-2.814
			l0.183-5.426l2.606-0.055c0,0,0.309-0.123,0.379-0.627c0.07-0.502-0.029-0.584-0.336-0.611c-0.309-0.027-2.621-0.137-2.621-0.137
			l0.111-2.461c0,0,0-0.203-0.924-0.434c-0.926-0.232-1.248-0.164-1.318,0.326c-0.014,0.34-0.084,2.447-0.084,2.447l-2.102-0.027
			c0,0-0.406,0.312-0.406,1.061c0.027,0.395,0.195,0.408,0.195,0.408l2.201,0.027l-0.028,4.678c0,0-0.112,1.4-1.598,2.65
			c0,0,0.126-0.334,0.056-0.869c-0.154-1.115-1.135-1.877-3.223-3.318c0,0,1.079-1.143,1.051-2.08
			c0.028-0.857-1.023-0.803-1.023-0.803s-0.67,0.043-1.219,0.436c-0.807,0.576-1.373,1.904-0.336,2.992c0,0-2.34,4.377-2.999,4.229
			c-0.267-0.041-0.435-0.49-0.393-1.633c0.042-1.141,0.14-4.377,0.14-4.377s0.127-0.654-0.812-1.102
			c-0.938-0.449-2.494-1.375-4.555,4.514l0.028-4.297c0,0,0.028-0.258-0.771-0.463c-0.799-0.203-1.037-0.096-1.051,0.15l-0.057,7.41
			c0,0-0.056,1.551,0.785,1.578s0.561,0.041,0.771,0.041s0.421-0.109,0.421-0.205c0-0.094,0.7-5.072,3.055-7.492
			c0,0,0.154-0.082,0.154,0.082c0,0.162-0.168,3.277-0.141,5.1c0.028,1.822,0.631,2.447,1.262,2.529
			c0.457,0.059,1.639-0.232,2.83-2.107c0.491-0.844,1.164-1.822,2.047-3.264c0,0,0.477,0.408,1.093,0.951s1.065,1.197,1.009,1.809
			s-0.225,1.209-0.994,1.236c-0.604,0-1.136-0.502-1.136-0.502s-0.351-0.285-0.546-0.285c-0.197,0-0.436,0.162-0.715,0.557
			c-0.281,0.395-0.238,0.531-0.238,0.652c0,0.123,0.294,0.98,2.746,0.994c2.453,0.012,3.77-1.973,4.442-3.523
			c0,0,0.099,3.496,2.425,3.496c1.266-0.02,2.091-1.459,2.424-2.285c0.028-0.07,0.049-0.129,0.066-0.184
			c0.068,0.268,0.199,0.721,0.369,1.02c0,0,0.59,1.477,2.061,1.5c2.162,0.021,2.949-1.957,2.949-1.957
			c0.023,0.268,0.336,1.789,1.91,1.957c1.119,0.119,1.805-0.908,2.105-1.51c1.025,1.756,2.244,1.518,2.244,1.518
			s1.578,0.094,2.607-1.561l0.064,0.936c0,0-0.643,0.562-2.254,2.027c-1.609,1.467-1.996,2.559-1.932,3.15
			c0,0-0.152,2.018,2.549,2.193c3.121-0.244,3.408-3.238,3.41-5.471c0-1.182-0.023-2.242-0.023-2.242
			c2.973-3.396,3.676-6.127,3.676-6.127s1.244-0.033,1.439-0.023c0.195,0.012,0.08,0.223,0.08,0.223s-0.334,1.043-0.426,3.131
			c-0.092,2.086,1.096,3.695,2.535,3.75c1.439,0.057,2.027-1.475,2.027-1.475S74.537,19.23,76,19.252
			c2.154,0.023,2.938-1.941,2.938-1.941c0.023,0.266,0.328,1.844,1.902,1.941c1.039,0.064,1.715-0.777,2.078-1.428l0.047,0.836
			c0,0-0.039,0.492,1.008,0.57c0,0,1.23,0.221,1.23-0.479c0-0.701,0.014-4.146,1.457-6.492c0,0,0.186-0.168,0.186,0.053
			c0,0.219,0.186,4.43,0.504,5.131c0.238,0.738,0.914,1.398,1.959,0.932c0.16-0.104,0.133-0.285,0.133-0.285
			s0.018-0.809,0.172-1.775c0.215-1.33,0.654-3.051,1.299-4.184c0.053-0.078,0.066,0,0.066,0s-0.092,1.678,0,3.188
			c0.121,2.006,0.615,3.979,2.543,3.912c0,0,2.025,0.053,2.025-3.188C95.547,15.811,95.256,15.746,95.256,15.746z M51.703,18.021
			c-0.66-0.084-1.441-0.822-1.25-3.674c0.191-2.854,1.25-3.139,1.701-3.154c0,0,1.51-0.186,1.439,2.852
			C53.525,17.082,52.363,18.105,51.703,18.021z M60.785,18.094c-0.67-0.084-1.463-0.832-1.27-3.723
			c0.26-2.76,1.412-3.148,1.871-3.166c0,0,1.389-0.215,1.318,2.861S61.453,18.18,60.785,18.094z M62.9,21.967
			c-0.041,1.555-0.295,3.33-1.805,3.182c-1.256-0.062-0.998-1.342-0.998-1.342s0.227-1.559,2.834-3.742
			C62.932,20.064,62.92,21.232,62.9,21.967z M76.785,18.121c-0.66-0.084-1.441-0.82-1.25-3.674c0.189-2.852,1.25-3.137,1.701-3.152
			c0,0,1.51-0.186,1.439,2.852C78.607,17.182,77.443,18.205,76.785,18.121z M14.416,5.051H1.945C0.871,5.051,0,5.893,0,6.93v12.088
			c0,1.037,0.871,1.879,1.945,1.879h12.471c1.074,0,1.945-0.842,1.945-1.879V6.93C16.361,5.893,15.49,5.051,14.416,5.051z
			 M11.365,7.299c0-0.244,0.205-0.441,0.457-0.441h2.213c0.252,0,0.457,0.197,0.457,0.441v2.137c0,0.246-0.205,0.443-0.457,0.443
			h-2.213c-0.252,0-0.457-0.197-0.457-0.443V7.299z M8.199,9.953c1.738,0,3.146,1.361,3.146,3.039c0,1.68-1.408,3.041-3.146,3.041
			c-1.736,0-3.146-1.361-3.146-3.041C5.054,11.314,6.463,9.953,8.199,9.953z M14.531,18.611c0,0.244-0.205,0.443-0.458,0.443H2.326
			c-0.252,0-0.457-0.199-0.457-0.443v-6.891H3.4c-0.115,0.406-0.178,0.832-0.178,1.271c0,2.652,2.232,4.809,4.977,4.809
			s4.978-2.156,4.978-4.809c0-0.439-0.062-0.865-0.177-1.271h1.531V18.611z"/>
	</g>
</g>
</svg>
