<?xml version="1.0" encoding="utf-8"?>
<!-- Generator: Adobe Illustrator 16.0.0, SVG Export Plug-In . SVG Version: 6.00 Build 0)  -->
<!DOCTYPE svg PUBLIC "-//W3C//DTD SVG 1.1//EN" "http://www.w3.org/Graphics/SVG/1.1/DTD/svg11.dtd">
<svg version="1.1" id="Layer_1" xmlns="http://www.w3.org/2000/svg" xmlns:xlink="http://www.w3.org/1999/xlink" x="0px" y="0px"
	 width="64.979px" height="46.112px" viewBox="0 0 64.979 46.112" enable-background="new 0 0 64.979 46.112" xml:space="preserve">
<g>
	<g>
		<g>
			<g>
				<path fill="#F6D742" d="M0.205,18.69c-0.273,0.269-0.273,0.708,0,0.977l10.809,10.629c0.273,0.271,0.279,0.715,0.014,0.992
					L3.621,38.99c-0.265,0.276-0.262,0.725,0.009,0.996l5.894,5.924c0.271,0.271,0.711,0.271,0.979-0.002l14.272-14.554
					c0.269-0.272,0.266-0.718-0.006-0.987L7.148,12.828c-0.271-0.27-0.717-0.271-0.99-0.002L0.205,18.69z"/>
			</g>
			<g>
				<path fill="#FFFFFF" d="M64.773,19.667c0.273-0.269,0.273-0.708,0.002-0.977l-5.955-5.864c-0.273-0.269-0.719-0.268-0.99,0.002
					L40.209,30.365c-0.271,0.27-0.273,0.715-0.005,0.988l14.272,14.553c0.269,0.273,0.709,0.274,0.979,0.004l5.896-5.925
					c0.271-0.272,0.274-0.72,0.008-0.995l-7.406-7.703c-0.266-0.275-0.26-0.721,0.014-0.99L64.773,19.667z"/>
			</g>
			<g>
				<path fill="#FFFFFF" d="M54.741,0.204c-0.271-0.271-0.714-0.272-0.985-0.002L32.983,20.875c-0.271,0.27-0.716,0.27-0.987,0
					L11.224,0.202c-0.271-0.271-0.715-0.269-0.985,0.002L4.343,6.128C4.073,6.4,4.075,6.843,4.346,7.113l27.65,27.518
					c0.271,0.271,0.716,0.271,0.987,0l27.65-27.518c0.271-0.27,0.271-0.713,0.002-0.985L54.741,0.204z"/>
			</g>
		</g>
	</g>
</g>
</svg>
