<?xml version="1.0" encoding="utf-8"?>
<!-- Generator: Adobe Illustrator 16.0.0, SVG Export Plug-In . SVG Version: 6.00 Build 0)  -->
<!DOCTYPE svg PUBLIC "-//W3C//DTD SVG 1.1//EN" "http://www.w3.org/Graphics/SVG/1.1/DTD/svg11.dtd">
<svg version="1.1" id="Layer_1" xmlns="http://www.w3.org/2000/svg" xmlns:xlink="http://www.w3.org/1999/xlink" x="0px" y="0px"
	 width="60.413px" height="26px" viewBox="0 0 60.413 26" enable-background="new 0 0 60.413 26" xml:space="preserve">
<g>
	<g>
		<path fill-rule="evenodd" clip-rule="evenodd" fill="#FFFFFF" d="M4.05,10.662L2.408,4.709H0l2.956,9.09v6.17h2.188v-6.17
			l2.846-9.09H5.691L4.05,10.662z M11.636,8.548c-0.285-0.052-0.67-0.052-0.966,0.003c-0.714,0.132-1.996,0.582-2.461,2.111
			c0,0-0.11,0.756-0.11,1.082c0,0.324,0,5.41,0,5.41s0.028,0.923,0.547,1.734c0.393,0.613,1.074,1.151,2.166,1.274
			c0.147,0.014,0.63,0.009,0.806-0.016c1.032-0.14,1.684-0.664,2.063-1.259c0.52-0.812,0.548-1.734,0.548-1.734s0-5.085,0-5.41
			c0-0.326-0.108-1.082-0.108-1.082C13.65,9.115,12.345,8.674,11.636,8.548z M12.149,11.744c0,0,0,4.112,0,5.41
			c0,1.3-0.984,1.19-0.984,1.19s-1.094,0.109-1.094-1.19v-5.41c0-1.516,1.094-1.408,1.094-1.408
			C12.259,10.336,12.149,11.744,12.149,11.744z M19.922,17.371c-0.33,0.756-1.204,0.973-1.204,0.973
			c-0.767,0-0.657-0.538-0.657-0.538V8.604h-2.081c0,0,0,8.767,0,9.849s0.548,1.731,1.644,1.731c1.095,0,2.299-1.405,2.299-1.405
			v1.299H22V8.604h-2.079V17.371z M56.657,1.545c-2.533-0.437-5.406-0.329-14.561-0.437c-6.182,0-9.285,0.108-9.709,0.108
			c-3.975,0.221-6.733-0.324-7.727,3.931c-0.442,2.397-0.661,5.454-0.661,7.797c0.219,5.079-0.219,11.183,4.741,11.625
			c2.543,0.22,9.163,0.324,13.526,0.324c5.953,0,12.412-0.108,14.619-0.55c0.969-0.232,1.82-1.221,2.098-1.632
			c1.291-1.712,1.314-4.291,1.43-9.819C60.194,8.198,60.524,2.09,56.657,1.545z M34.702,6.999c-0.109,0-2.533,0-2.533,0v13.206
			h-2.325V6.999h-2.426v-2.29h7.284C34.702,4.709,34.813,6.999,34.702,6.999z M41.213,20.245h-2.098V18.93
			c0,0-1.104,1.424-2.316,1.424s-1.658-0.767-1.658-2.182c0-1.424,0-9.493,0-9.493h2.096v9.276c0,0,0,0.434,0.557,0.434
			c0.547,0,1.322-0.767,1.322-0.983c0-0.216,0-8.726,0-8.726h2.098V20.245z M49.272,18.172c0,0-0.229,2.182-1.549,2.182
			c-1.322,0-2.098-0.767-2.535-1.308v1.199H43.09V4.749h2.098V9.77c0,0,1.104-1.312,2.096-1.312c0.994,0,1.988,0.654,1.988,2.073
			C49.272,11.952,49.272,18.172,49.272,18.172z M57.213,18.24c-0.328,1.965-2.762,2.182-2.762,2.182c-3.529,0-3.42-3.273-3.42-3.273
			s0-5.021,0-5.457c0-0.438,0.219-1.091,0.219-1.091c0.229-0.654,0.447-1.965,3.092-1.965c3.09,0,2.98,3.057,2.98,3.057v3.168
			h-4.193c0,0,0,1.632,0,2.289c0,0.65,0.328,1.308,1.213,1.308c0.883,0,0.883-1.308,0.883-1.308v-0.873h2.098
			C57.323,16.275,57.432,16.815,57.213,18.24z M55.239,11.681c0,0-0.109-1.199-0.994-1.199c-0.883,0-1.102,0.982-1.102,1.199
			c0,0.221,0,1.419,0,1.419h2.096V11.681z M46.292,10.492c-0.557,0-0.994,0.438-0.994,0.438v7.093
			c0.328,0.434,0.994,0.434,0.994,0.434c0.883,0,0.883-0.982,0.883-0.982s0-5.021,0-5.782
			C47.174,10.929,46.838,10.492,46.292,10.492z"/>
	</g>
</g>
</svg>
